IBM Plex Sans Var-Thin Condensed.ufo
<glyph name="E" format="2">
	<advance width="506"/>
	<unicode hex="0045"/>
	<anchor x="269" y="0" name="bottom"/>
	<anchor x="439" y="0" name="bottomright"/>
	<anchor x="269" y="698" name="top"/>
	<outline>
		<contour>
			<point x="441" y="0" type="line" name="hr00"/>
			<point x="441" y="20" type="line"/>
			<point x="119" y="20" type="line"/>
			<point x="119" y="344" type="line"/>
			<point x="430" y="344" type="line"/>
			<point x="430" y="364" type="line"/>
			<point x="119" y="364" type="line"/>
			<point x="119" y="678" type="line"/>
			<point x="441" y="678" type="line"/>
			<point x="441" y="698" type="line"/>
			<point x="97" y="698" type="line"/>
			<point x="97" y="0" type="line"/>
		</contour>
	</outline>
</glyph>
<glyph name="I" format="2">
	<advance width="336"/>
	<unicode hex="0049"/>
	<anchor x="167" y="0" name="bottom"/>
	<anchor x="271" y="0" name="bottomright"/>
	<anchor x="167" y="698" name="top"/>
	<outline>
		<contour>
			<point x="275" y="0" type="line" name="hr00"/>
			<point x="275" y="19" type="line"/>
			<point x="179" y="19" type="line"/>
			<point x="179" y="679" type="line"/>
			<point x="275" y="679" type="line"/>
			<point x="275" y="698" type="line"/>
			<point x="61" y="698" type="line"/>
			<point x="61" y="679" type="line"/>
			<point x="157" y="679" type="line"/>
			<point x="157" y="19" type="line"/>
			<point x="61" y="19" type="line"/>
			<point x="61" y="0" type="line"/>
		</contour>
	</outline>
</glyph>
<glyph name="K" format="2">
	<advance width="517"/>
	<unicode hex="004B"/>
	<anchor x="283" y="0" name="bottom"/>
	<anchor x="282" y="698" name="top"/>
	<outline>
		<contour>
			<point x="473" y="0" type="line" name="hr00"/>
			<point x="499" y="0" type="line"/>
			<point x="252" y="404" type="line"/>
			<point x="495" y="698" type="line"/>
			<point x="469" y="698" type="line"/>
			<point x="253" y="437" type="line"/>
			<point x="123" y="273" type="line"/>
			<point x="119" y="273" type="line"/>
			<point x="119" y="437" type="line"/>
			<point x="119" y="698" type="line"/>
			<point x="97" y="698" type="line"/>
			<point x="97" y="0" type="line"/>
			<point x="119" y="0" type="line"/>
			<point x="119" y="237" type="line"/>
			<point x="238" y="388" type="line"/>
		</contour>
	</outline>
</glyph>
<glyph name="M" format="2">
	<advance width="718"/>
	<unicode hex="004D"/>
	<anchor x="358" y="0" name="bottom"/>
	<anchor x="358" y="698" name="top"/>
	<outline>
		<contour>
			<point x="97" y="0" type="line"/>
			<point x="119" y="0" type="line"/>
			<point x="119" y="508" type="line"/>
			<point x="119" y="677" type="line"/>
			<point x="123" y="677" type="line"/>
			<point x="214" y="508" type="line"/>
			<point x="359" y="236" type="line"/>
			<point x="504" y="508" type="line"/>
			<point x="595" y="678" type="line"/>
			<point x="599" y="678" type="line"/>
			<point x="599" y="508" type="line"/>
			<point x="599" y="0" type="line" name="hr00"/>
			<point x="621" y="0" type="line"/>
			<point x="621" y="698" type="line"/>
			<point x="584" y="698" type="line"/>
			<point x="445" y="438" type="line"/>
			<point x="360" y="278" type="line"/>
			<point x="358" y="278" type="line"/>
			<point x="273" y="438" type="line"/>
			<point x="134" y="698" type="line"/>
			<point x="97" y="698" type="line"/>
		</contour>
	</outline>
</glyph>
<glyph name="N" format="2">
	<advance width="623"/>
	<unicode hex="004E"/>
	<anchor x="312" y="0" name="bottom"/>
	<anchor x="312" y="698" name="top"/>
	<outline>
		<contour>
			<point x="489" y="0" type="line" name="hr00"/>
			<point x="527" y="0" type="line"/>
			<point x="527" y="698" type="line"/>
			<point x="505" y="698" type="line"/>
			<point x="505" y="190" type="line"/>
			<point x="505" y="20" type="line"/>
			<point x="501" y="20" type="line"/>
			<point x="409" y="190" type="line"/>
			<point x="135" y="698" type="line"/>
			<point x="97" y="698" type="line"/>
			<point x="97" y="0" type="line"/>
			<point x="119" y="0" type="line"/>
			<point x="119" y="508" type="line"/>
			<point x="119" y="678" type="line"/>
			<point x="123" y="678" type="line"/>
			<point x="215" y="508" type="line"/>
		</contour>
	</outline>
</glyph>
<glyph name="grave" format="2">
	<advance width="540"/>
	<unicode hex="0060"/>
	<anchor x="270" y="540" name="_top"/>
	<outline>
		<contour>
			<point x="285" y="587" type="line" name="hr00"/>
			<point x="300" y="597" type="line"/>
			<point x="201" y="751" type="line"/>
			<point x="182" y="739" type="line"/>
		</contour>
	</outline>
</glyph>
<glyph name="x" format="2">
	<advance width="424"/>
	<unicode hex="0078"/>
	<anchor x="213" y="0" name="bottom"/>
	<anchor x="213" y="540" name="top"/>
	<outline>
		<contour>
			<point x="30" y="0" type="line"/>
			<point x="54" y="0" type="line" name="hr00"/>
			<point x="209" y="236" type="line"/>
			<point x="215" y="236" type="line"/>
			<point x="370" y="0" type="line"/>
			<point x="394" y="0" type="line"/>
			<point x="225" y="255" type="line"/>
			<point x="390" y="506" type="line"/>
			<point x="366" y="506" type="line"/>
			<point x="215" y="274" type="line"/>
			<point x="209" y="274" type="line"/>
			<point x="59" y="506" type="line"/>
			<point x="35" y="506" type="line"/>
			<point x="199" y="255" type="line"/>
		</contour>
	</outline>
</glyph>
<glyph name="acute" format="2">
	<advance width="540"/>
	<unicode hex="00B4"/>
	<anchor x="270" y="540" name="_top"/>
	<outline>
		<contour>
			<point x="358" y="739" type="line" name="hr00"/>
			<point x="339" y="751" type="line"/>
			<point x="240" y="597" type="line"/>
			<point x="255" y="587" type="line"/>
		</contour>
	</outline>
</glyph>
<glyph name="dotlessi" format="2">
	<advance width="209"/>
	<unicode hex="0131"/>
	<anchor x="104" y="540" name="top"/>
	<outline>
		<contour>
			<point x="115" y="0" type="line" name="hr00"/>
			<point x="115" y="506" type="line"/>
			<point x="94" y="506" type="line"/>
			<point x="94" y="0" type="line"/>
		</contour>
	</outline>
</glyph>
<glyph name="tonos" format="2">
	<advance width="540"/>
	<unicode hex="0384"/>
	<anchor x="274" y="540" name="_top"/>
	<outline>
		<contour>
			<point x="340" y="743" type="line"/>
			<point x="319" y="751" type="line"/>
			<point x="259" y="593" type="line"/>
			<point x="275" y="587" type="line"/>
		</contour>
	</outline>
</glyph>
<glyph name="dieresistonos" format="2">
	<advance width="541"/>
	<unicode hex="0385"/>
	<anchor x="265" y="540" name="_top"/>
	<outline>
		<contour>
			<point x="353" y="642" type="curve" smooth="yes"/>
			<point x="369" y="642"/>
			<point x="375" y="652"/>
			<point x="375" y="663" type="curve" smooth="yes"/>
			<point x="375" y="670" type="line" smooth="yes"/>
			<point x="375" y="681"/>
			<point x="369" y="691"/>
			<point x="353" y="691" type="curve" smooth="yes"/>
			<point x="338" y="691"/>
			<point x="332" y="681"/>
			<point x="332" y="670" type="curve" smooth="yes"/>
			<point x="332" y="663" type="line" smooth="yes"/>
			<point x="332" y="652"/>
			<point x="338" y="642"/>
		</contour>
		<contour>
			<point x="187" y="642" type="curve" smooth="yes"/>
			<point x="203" y="642"/>
			<point x="209" y="652"/>
			<point x="209" y="663" type="curve" smooth="yes"/>
			<point x="209" y="670" type="line" smooth="yes"/>
			<point x="209" y="681"/>
			<point x="203" y="691"/>
			<point x="187" y="691" type="curve" smooth="yes"/>
			<point x="172" y="691"/>
			<point x="166" y="681"/>
			<point x="166" y="670" type="curve" smooth="yes"/>
			<point x="166" y="663" type="line" smooth="yes"/>
			<point x="166" y="652"/>
			<point x="172" y="642"/>
		</contour>
		<contour>
			<point x="312" y="743" type="line"/>
			<point x="291" y="751" type="line"/>
			<point x="232" y="593" type="line"/>
			<point x="247" y="587" type="line"/>
		</contour>
	</outline>
</glyph>
<glyph name="Theta" format="2">
	<advance width="614"/>
	<unicode hex="0398"/>
	<outline>
		<contour>
			<point x="307" y="-12" type="curve" smooth="yes"/>
			<point x="463" y="-12"/>
			<point x="551" y="110"/>
			<point x="551" y="349" type="curve" smooth="yes"/>
			<point x="551" y="588"/>
			<point x="463" y="710"/>
			<point x="307" y="710" type="curve" smooth="yes"/>
			<point x="151" y="710"/>
			<point x="63" y="589"/>
			<point x="63" y="349" type="curve" smooth="yes"/>
			<point x="63" y="109"/>
			<point x="151" y="-12"/>
		</contour>
		<contour>
			<point x="307" y="8" type="curve" smooth="yes"/>
			<point x="170" y="8"/>
			<point x="87" y="118"/>
			<point x="87" y="328" type="curve" smooth="yes"/>
			<point x="87" y="370" type="line" smooth="yes"/>
			<point x="87" y="580"/>
			<point x="170" y="690"/>
			<point x="307" y="690" type="curve" smooth="yes"/>
			<point x="443" y="690"/>
			<point x="527" y="581"/>
			<point x="527" y="370" type="curve" smooth="yes"/>
			<point x="527" y="328" type="line" smooth="yes"/>
			<point x="527" y="117"/>
			<point x="443" y="8"/>
		</contour>
		<contour>
			<point x="452" y="344" type="line"/>
			<point x="452" y="364" type="line"/>
			<point x="162" y="364" type="line"/>
			<point x="162" y="344" type="line"/>
		</contour>
	</outline>
</glyph>
<glyph name="Lambda" format="2">
	<advance width="531"/>
	<unicode hex="039B"/>
	<outline>
		<contour>
			<point x="251" y="698" type="line"/>
			<point x="28" y="0" type="line"/>
			<point x="51" y="0" type="line"/>
			<point x="168" y="371" type="line"/>
			<point x="264" y="675" type="line"/>
			<point x="267" y="675" type="line"/>
			<point x="363" y="371" type="line"/>
			<point x="480" y="0" type="line"/>
			<point x="503" y="0" type="line"/>
			<point x="281" y="698" type="line"/>
		</contour>
	</outline>
</glyph>
<glyph name="Xi" format="2">
	<advance width="502"/>
	<unicode hex="039E"/>
	<outline>
		<contour>
			<point x="65" y="678" type="line"/>
			<point x="437" y="678" type="line"/>
			<point x="437" y="698" type="line"/>
			<point x="65" y="698" type="line"/>
		</contour>
		<contour>
			<point x="94" y="344" type="line"/>
			<point x="407" y="344" type="line"/>
			<point x="407" y="364" type="line"/>
			<point x="94" y="364" type="line"/>
		</contour>
		<contour>
			<point x="65" y="0" type="line"/>
			<point x="437" y="0" type="line"/>
			<point x="437" y="20" type="line"/>
			<point x="65" y="20" type="line"/>
		</contour>
	</outline>
</glyph>
<glyph name="Sigma" format="2">
	<advance width="515"/>
	<unicode hex="03A3"/>
	<outline>
		<contour>
			<point x="454" y="0" type="line"/>
			<point x="454" y="20" type="line"/>
			<point x="69" y="20" type="line"/>
			<point x="318" y="354" type="line"/>
			<point x="75" y="678" type="line"/>
			<point x="454" y="678" type="line"/>
			<point x="454" y="698" type="line"/>
			<point x="50" y="698" type="line"/>
			<point x="50" y="676" type="line"/>
			<point x="292" y="354" type="line"/>
			<point x="45" y="22" type="line"/>
			<point x="45" y="0" type="line"/>
		</contour>
	</outline>
</glyph>
<glyph name="Phi" format="2">
	<advance width="744"/>
	<unicode hex="03A6"/>
	<outline>
		<contour>
			<point x="361" y="-29" type="line"/>
			<point x="383" y="-29" type="line"/>
			<point x="383" y="37" type="line"/>
			<point x="415" y="37" type="line" smooth="yes"/>
			<point x="590" y="37"/>
			<point x="685" y="161"/>
			<point x="685" y="354" type="curve" smooth="yes"/>
			<point x="685" y="547"/>
			<point x="590" y="671"/>
			<point x="415" y="671" type="curve" smooth="yes"/>
			<point x="383" y="671" type="line"/>
			<point x="383" y="725" type="line"/>
			<point x="361" y="725" type="line"/>
			<point x="361" y="671" type="line"/>
			<point x="329" y="671" type="line" smooth="yes"/>
			<point x="155" y="671"/>
			<point x="59" y="548"/>
			<point x="59" y="354" type="curve" smooth="yes"/>
			<point x="59" y="160"/>
			<point x="155" y="37"/>
			<point x="329" y="37" type="curve" smooth="yes"/>
			<point x="361" y="37" type="line"/>
		</contour>
		<contour>
			<point x="361" y="57" type="line"/>
			<point x="329" y="57" type="line"/>
			<point x="166" y="57"/>
			<point x="83" y="184"/>
			<point x="83" y="324" type="curve" smooth="yes"/>
			<point x="83" y="384" type="line" smooth="yes"/>
			<point x="83" y="524"/>
			<point x="166" y="651"/>
			<point x="329" y="651" type="curve" smooth="yes"/>
			<point x="361" y="651" type="line"/>
		</contour>
		<contour>
			<point x="383" y="57" type="line"/>
			<point x="383" y="651" type="line"/>
			<point x="415" y="651" type="line" smooth="yes"/>
			<point x="579" y="651"/>
			<point x="661" y="523"/>
			<point x="661" y="384" type="curve" smooth="yes"/>
			<point x="661" y="324" type="line" smooth="yes"/>
			<point x="661" y="185"/>
			<point x="579" y="57"/>
			<point x="415" y="57" type="curve" smooth="yes"/>
		</contour>
	</outline>
</glyph>
<glyph name="Psi" format="2">
	<advance width="677"/>
	<unicode hex="03A8"/>
	<outline>
		<contour>
			<point x="328" y="0" type="line"/>
			<point x="350" y="0" type="line"/>
			<point x="350" y="208" type="line"/>
			<point x="511" y="208"/>
			<point x="605" y="277"/>
			<point x="605" y="480" type="curve" smooth="yes"/>
			<point x="605" y="698" type="line"/>
			<point x="583" y="698" type="line"/>
			<point x="583" y="478" type="line" smooth="yes"/>
			<point x="583" y="294"/>
			<point x="501" y="228"/>
			<point x="350" y="228" type="curve"/>
			<point x="350" y="698" type="line"/>
			<point x="328" y="698" type="line"/>
			<point x="328" y="228" type="line"/>
			<point x="177" y="228"/>
			<point x="94" y="294"/>
			<point x="94" y="478" type="curve" smooth="yes"/>
			<point x="94" y="698" type="line"/>
			<point x="72" y="698" type="line"/>
			<point x="72" y="480" type="line" smooth="yes"/>
			<point x="72" y="277"/>
			<point x="166" y="208"/>
			<point x="328" y="208" type="curve"/>
		</contour>
	</outline>
</glyph>
<glyph name="alpha" format="2">
	<advance width="573"/>
	<unicode hex="03B1"/>
	<anchor x="243" y="540" name="top"/>
	<outline>
		<contour>
			<point x="535" y="19" type="line"/>
			<point x="476" y="19" type="line"/>
			<point x="424" y="257" type="line"/>
			<point x="503" y="506" type="line"/>
			<point x="481" y="506" type="line"/>
			<point x="433" y="346" type="line"/>
			<point x="413" y="279" type="line"/>
			<point x="411" y="279" type="line"/>
			<point x="379" y="466"/>
			<point x="318" y="518"/>
			<point x="224" y="518" type="curve" smooth="yes"/>
			<point x="126" y="518"/>
			<point x="54" y="428"/>
			<point x="54" y="253" type="curve" smooth="yes"/>
			<point x="54" y="78"/>
			<point x="126" y="-12"/>
			<point x="224" y="-12" type="curve" smooth="yes"/>
			<point x="313" y="-12"/>
			<point x="365" y="39"/>
			<point x="411" y="227" type="curve"/>
			<point x="413" y="227" type="line"/>
			<point x="450" y="35" type="line" smooth="yes"/>
			<point x="456" y="5"/>
			<point x="465" y="0"/>
			<point x="482" y="0" type="curve" smooth="yes"/>
			<point x="535" y="0" type="line"/>
		</contour>
		<contour>
			<point x="224" y="7" type="curve" smooth="yes"/>
			<point x="139" y="7"/>
			<point x="77" y="92"/>
			<point x="77" y="229" type="curve" smooth="yes"/>
			<point x="77" y="277" type="line" smooth="yes"/>
			<point x="77" y="414"/>
			<point x="139" y="499"/>
			<point x="224" y="499" type="curve" smooth="yes"/>
			<point x="303" y="499"/>
			<point x="352" y="456"/>
			<point x="386" y="312" type="curve" smooth="yes"/>
			<point x="400" y="253" type="line"/>
			<point x="387" y="207" type="line" smooth="yes"/>
			<point x="345" y="58"/>
			<point x="306" y="7"/>
		</contour>
	</outline>
</glyph>
<glyph name="beta" format="2">
	<advance width="513"/>
	<unicode hex="03B2"/>
	<outline>
		<contour>
			<point x="94" y="-200" type="line"/>
			<point x="115" y="-200" type="line"/>
			<point x="115" y="78" type="line"/>
			<point x="118" y="78" type="line"/>
			<point x="137" y="34"/>
			<point x="186" y="-12"/>
			<point x="268" y="-12" type="curve" smooth="yes"/>
			<point x="382" y="-12"/>
			<point x="455" y="73"/>
			<point x="455" y="202" type="curve" smooth="yes"/>
			<point x="455" y="321"/>
			<point x="406" y="386"/>
			<point x="315" y="404" type="curve"/>
			<point x="315" y="410" type="line"/>
			<point x="376" y="428"/>
			<point x="421" y="482"/>
			<point x="421" y="574" type="curve" smooth="yes"/>
			<point x="421" y="686"/>
			<point x="350" y="752"/>
			<point x="261" y="752" type="curve" smooth="yes"/>
			<point x="146" y="752"/>
			<point x="94" y="667"/>
			<point x="94" y="513" type="curve" smooth="yes"/>
		</contour>
		<contour>
			<point x="190" y="396" type="line"/>
			<point x="272" y="396" type="line" smooth="yes"/>
			<point x="372" y="396"/>
			<point x="432" y="326"/>
			<point x="432" y="226" type="curve" smooth="yes"/>
			<point x="432" y="178" type="line" smooth="yes"/>
			<point x="432" y="98"/>
			<point x="377" y="7"/>
			<point x="267" y="7" type="curve" smooth="yes"/>
			<point x="186" y="7"/>
			<point x="115" y="62"/>
			<point x="115" y="143" type="curve" smooth="yes"/>
			<point x="115" y="521" type="line" smooth="yes"/>
			<point x="115" y="658"/>
			<point x="161" y="733"/>
			<point x="261" y="733" type="curve" smooth="yes"/>
			<point x="338" y="733"/>
			<point x="399" y="672"/>
			<point x="399" y="588" type="curve" smooth="yes"/>
			<point x="399" y="560" type="line" smooth="yes"/>
			<point x="399" y="481"/>
			<point x="349" y="415"/>
			<point x="271" y="415" type="curve" smooth="yes"/>
			<point x="190" y="415" type="line"/>
		</contour>
	</outline>
</glyph>
<glyph name="gamma" format="2">
	<advance width="423"/>
	<unicode hex="03B3"/>
	<outline>
		<contour>
			<point x="208" y="-200" type="line"/>
			<point x="229" y="-200" type="line"/>
			<point x="229" y="0" type="line"/>
			<point x="401" y="506" type="line"/>
			<point x="380" y="506" type="line"/>
			<point x="250" y="113" type="line"/>
			<point x="220" y="24" type="line"/>
			<point x="218" y="24" type="line"/>
			<point x="192" y="113" type="line"/>
			<point x="75" y="488" type="line" smooth="yes"/>
			<point x="71" y="500"/>
			<point x="65" y="506"/>
			<point x="48" y="506" type="curve" smooth="yes"/>
			<point x="4" y="506" type="line"/>
			<point x="4" y="487" type="line"/>
			<point x="53" y="487" type="line"/>
			<point x="208" y="0" type="line"/>
		</contour>
	</outline>
</glyph>
<glyph name="delta" format="2">
	<advance width="488"/>
	<unicode hex="03B4"/>
	<outline>
		<contour>
			<point x="313" y="493" type="curve"/>
			<point x="293" y="516" type="line"/>
			<point x="293" y="505" type="line"/>
			<point x="146" y="503"/>
			<point x="54" y="406"/>
			<point x="54" y="243" type="curve" smooth="yes"/>
			<point x="54" y="82"/>
			<point x="125" y="-12"/>
			<point x="244" y="-12" type="curve" smooth="yes"/>
			<point x="363" y="-12"/>
			<point x="434" y="78"/>
			<point x="434" y="232" type="curve" smooth="yes"/>
			<point x="434" y="347"/>
			<point x="402" y="431"/>
			<point x="249" y="588" type="curve" smooth="yes"/>
			<point x="118" y="723" type="line"/>
			<point x="118" y="724" type="line"/>
			<point x="167" y="721" type="line"/>
			<point x="405" y="721" type="line"/>
			<point x="405" y="740" type="line"/>
			<point x="97" y="740" type="line"/>
			<point x="97" y="719" type="line"/>
			<point x="237" y="573" type="line" smooth="yes"/>
			<point x="388" y="416"/>
			<point x="411" y="341"/>
			<point x="411" y="245" type="curve" smooth="yes"/>
			<point x="411" y="209" type="line" smooth="yes"/>
			<point x="411" y="93"/>
			<point x="350" y="7"/>
			<point x="244" y="7" type="curve" smooth="yes"/>
			<point x="137" y="7"/>
			<point x="77" y="97"/>
			<point x="77" y="219" type="curve" smooth="yes"/>
			<point x="77" y="267" type="line" smooth="yes"/>
			<point x="77" y="385"/>
			<point x="150" y="492"/>
		</contour>
	</outline>
</glyph>
<glyph name="epsilon" format="2">
	<advance width="473"/>
	<unicode hex="03B5"/>
	<anchor x="246" y="540" name="top"/>
	<outline>
		<contour>
			<point x="410" y="95" type="line"/>
			<point x="380" y="37"/>
			<point x="330" y="7"/>
			<point x="241" y="7" type="curve" smooth="yes"/>
			<point x="151" y="7"/>
			<point x="96" y="49"/>
			<point x="96" y="117" type="curve" smooth="yes"/>
			<point x="96" y="138" type="line" smooth="yes"/>
			<point x="96" y="205"/>
			<point x="147" y="251"/>
			<point x="229" y="251" type="curve" smooth="yes"/>
			<point x="339" y="251" type="line"/>
			<point x="339" y="270" type="line"/>
			<point x="230" y="270" type="line" smooth="yes"/>
			<point x="160" y="270"/>
			<point x="113" y="320"/>
			<point x="113" y="379" type="curve" smooth="yes"/>
			<point x="113" y="391" type="line" smooth="yes"/>
			<point x="113" y="457"/>
			<point x="158" y="499"/>
			<point x="251" y="499" type="curve" smooth="yes"/>
			<point x="337" y="499"/>
			<point x="371" y="466"/>
			<point x="399" y="431" type="curve"/>
			<point x="415" y="445" type="line"/>
			<point x="385" y="482"/>
			<point x="344" y="518"/>
			<point x="250" y="518" type="curve" smooth="yes"/>
			<point x="150" y="518"/>
			<point x="90" y="473"/>
			<point x="90" y="385" type="curve" smooth="yes"/>
			<point x="90" y="319"/>
			<point x="124" y="283"/>
			<point x="179" y="264" type="curve"/>
			<point x="179" y="258" type="line"/>
			<point x="117" y="249"/>
			<point x="73" y="200"/>
			<point x="73" y="129" type="curve" smooth="yes"/>
			<point x="73" y="40"/>
			<point x="132" y="-12"/>
			<point x="241" y="-12" type="curve" smooth="yes"/>
			<point x="344" y="-12"/>
			<point x="396" y="27"/>
			<point x="426" y="84" type="curve"/>
		</contour>
	</outline>
</glyph>
<glyph name="zeta" format="2">
	<advance width="385"/>
	<unicode hex="03B6"/>
	<outline>
		<contour>
			<point x="65" y="721" type="line"/>
			<point x="295" y="721" type="line"/>
			<point x="344" y="727" type="line"/>
			<point x="344" y="723" type="line"/>
			<point x="148" y="458" type="line" smooth="yes"/>
			<point x="77" y="362"/>
			<point x="52" y="290"/>
			<point x="52" y="227" type="curve" smooth="yes"/>
			<point x="52" y="114"/>
			<point x="103" y="51"/>
			<point x="254" y="7" type="curve" smooth="yes"/>
			<point x="323" y="-13" type="line"/>
			<point x="290" y="-154" type="line"/>
			<point x="309" y="-160" type="line"/>
			<point x="340" y="-28" type="line" smooth="yes"/>
			<point x="341" y="-24"/>
			<point x="342" y="-18"/>
			<point x="342" y="-15" type="curve" smooth="yes"/>
			<point x="342" y="-4"/>
			<point x="335" y="4"/>
			<point x="321" y="8" type="curve" smooth="yes"/>
			<point x="258" y="26" type="line" smooth="yes"/>
			<point x="118" y="66"/>
			<point x="75" y="125"/>
			<point x="75" y="219" type="curve" smooth="yes"/>
			<point x="75" y="235" type="line" smooth="yes"/>
			<point x="75" y="298"/>
			<point x="102" y="363"/>
			<point x="164" y="447" type="curve" smooth="yes"/>
			<point x="364" y="719" type="line"/>
			<point x="364" y="740" type="line"/>
			<point x="65" y="740" type="line"/>
		</contour>
	</outline>
</glyph>
<glyph name="eta" format="2">
	<advance width="510"/>
	<unicode hex="03B7"/>
	<anchor x="265" y="540" name="top"/>
	<outline>
		<contour>
			<point x="124" y="0" type="line"/>
			<point x="124" y="362" type="line" smooth="yes"/>
			<point x="124" y="454"/>
			<point x="192" y="499"/>
			<point x="266" y="499" type="curve" smooth="yes"/>
			<point x="354" y="499"/>
			<point x="404" y="443"/>
			<point x="404" y="321" type="curve" smooth="yes"/>
			<point x="404" y="-200" type="line"/>
			<point x="425" y="-200" type="line"/>
			<point x="425" y="325" type="line" smooth="yes"/>
			<point x="425" y="451"/>
			<point x="369" y="518"/>
			<point x="268" y="518" type="curve" smooth="yes"/>
			<point x="187" y="518"/>
			<point x="143" y="475"/>
			<point x="130" y="430" type="curve"/>
			<point x="112" y="430" type="line"/>
			<point x="124" y="416" type="line"/>
			<point x="124" y="477" type="line" smooth="yes"/>
			<point x="124" y="497"/>
			<point x="114" y="506"/>
			<point x="95" y="506" type="curve" smooth="yes"/>
			<point x="27" y="506" type="line"/>
			<point x="27" y="487" type="line"/>
			<point x="103" y="487" type="line"/>
			<point x="103" y="0" type="line"/>
		</contour>
	</outline>
</glyph>
<glyph name="theta" format="2">
	<advance width="495"/>
	<unicode hex="03B8"/>
	<outline>
		<contour>
			<point x="86" y="394" type="line" smooth="yes"/>
			<point x="86" y="647"/>
			<point x="146" y="733"/>
			<point x="247" y="733" type="curve" smooth="yes"/>
			<point x="349" y="733"/>
			<point x="409" y="647"/>
			<point x="409" y="394" type="curve" smooth="yes"/>
			<point x="409" y="380" type="line"/>
			<point x="86" y="380" type="line"/>
		</contour>
		<contour>
			<point x="247" y="752" type="curve" smooth="yes"/>
			<point x="133" y="752"/>
			<point x="63" y="661"/>
			<point x="63" y="370" type="curve" smooth="yes"/>
			<point x="63" y="79"/>
			<point x="133" y="-12"/>
			<point x="247" y="-12" type="curve" smooth="yes"/>
			<point x="361" y="-12"/>
			<point x="432" y="78"/>
			<point x="432" y="370" type="curve" smooth="yes"/>
			<point x="432" y="662"/>
			<point x="361" y="752"/>
		</contour>
		<contour>
			<point x="247" y="7" type="curve" smooth="yes"/>
			<point x="146" y="7"/>
			<point x="86" y="93"/>
			<point x="86" y="346" type="curve" smooth="yes"/>
			<point x="86" y="361" type="line"/>
			<point x="409" y="361" type="line"/>
			<point x="409" y="346" type="line" smooth="yes"/>
			<point x="409" y="93"/>
			<point x="349" y="7"/>
		</contour>
	</outline>
</glyph>
<glyph name="iota" format="2">
	<advance width="243"/>
	<unicode hex="03B9"/>
	<anchor x="112" y="540" name="top"/>
	<outline>
		<contour>
			<point x="216" y="19" type="line"/>
			<point x="115" y="19" type="line"/>
			<point x="115" y="506" type="line"/>
			<point x="94" y="506" type="line"/>
			<point x="94" y="29" type="line" smooth="yes"/>
			<point x="94" y="9"/>
			<point x="103" y="0"/>
			<point x="122" y="0" type="curve" smooth="yes"/>
			<point x="216" y="0" type="line"/>
		</contour>
	</outline>
</glyph>
<glyph name="kappa" format="2">
	<advance width="443"/>
	<unicode hex="03BA"/>
	<outline>
		<contour>
			<point x="404" y="0" type="line"/>
			<point x="430" y="0" type="line"/>
			<point x="208" y="284" type="line"/>
			<point x="380" y="487" type="line"/>
			<point x="426" y="487" type="line"/>
			<point x="426" y="506" type="line"/>
			<point x="386" y="506" type="line" smooth="yes"/>
			<point x="376" y="506"/>
			<point x="369" y="503"/>
			<point x="364" y="497" type="curve" smooth="yes"/>
			<point x="185" y="288" type="line"/>
			<point x="120" y="209" type="line"/>
			<point x="115" y="209" type="line"/>
			<point x="115" y="506" type="line"/>
			<point x="94" y="506" type="line"/>
			<point x="94" y="0" type="line"/>
			<point x="115" y="0" type="line"/>
			<point x="115" y="180" type="line"/>
			<point x="193" y="269" type="line"/>
		</contour>
	</outline>
</glyph>
<glyph name="lambda" format="2">
	<advance width="422"/>
	<unicode hex="03BB"/>
	<outline>
		<contour>
			<point x="187" y="508" type="line"/>
			<point x="15" y="0" type="line"/>
			<point x="36" y="0" type="line"/>
			<point x="136" y="296" type="line"/>
			<point x="195" y="476" type="line"/>
			<point x="198" y="476" type="line"/>
			<point x="254" y="295" type="line"/>
			<point x="340" y="18" type="line" smooth="yes"/>
			<point x="344" y="4"/>
			<point x="353" y="0"/>
			<point x="367" y="0" type="curve" smooth="yes"/>
			<point x="410" y="0" type="line"/>
			<point x="410" y="19" type="line"/>
			<point x="361" y="19" type="line"/>
			<point x="143" y="722" type="line" smooth="yes"/>
			<point x="138" y="737"/>
			<point x="129" y="740"/>
			<point x="116" y="740" type="curve" smooth="yes"/>
			<point x="62" y="740" type="line"/>
			<point x="62" y="721" type="line"/>
			<point x="122" y="721" type="line"/>
		</contour>
	</outline>
</glyph>
<glyph name="nu" format="2">
	<advance width="424"/>
	<unicode hex="03BD"/>
	<outline>
		<contour>
			<point x="232" y="0" type="line"/>
			<point x="402" y="506" type="line"/>
			<point x="381" y="506" type="line"/>
			<point x="288" y="228" type="line"/>
			<point x="222" y="24" type="line"/>
			<point x="218" y="24" type="line"/>
			<point x="155" y="228" type="line"/>
			<point x="75" y="488" type="line" smooth="yes"/>
			<point x="71" y="500"/>
			<point x="65" y="506"/>
			<point x="48" y="506" type="curve" smooth="yes"/>
			<point x="4" y="506" type="line"/>
			<point x="4" y="487" type="line"/>
			<point x="53" y="487" type="line"/>
			<point x="207" y="0" type="line"/>
		</contour>
	</outline>
</glyph>
<glyph name="xi" format="2">
	<advance width="416"/>
	<unicode hex="03BE"/>
	<outline>
		<contour>
			<point x="370" y="721" type="line"/>
			<point x="370" y="740" type="line"/>
			<point x="70" y="740" type="line"/>
			<point x="70" y="721" type="line"/>
			<point x="193" y="721" type="line"/>
			<point x="193" y="717" type="line"/>
			<point x="128" y="700"/>
			<point x="91" y="636"/>
			<point x="91" y="567" type="curve" smooth="yes"/>
			<point x="91" y="482"/>
			<point x="127" y="428"/>
			<point x="197" y="408" type="curve"/>
			<point x="197" y="403" type="line"/>
			<point x="106" y="389"/>
			<point x="58" y="313"/>
			<point x="58" y="227" type="curve" smooth="yes"/>
			<point x="58" y="110"/>
			<point x="105" y="54"/>
			<point x="268" y="7" type="curve" smooth="yes"/>
			<point x="338" y="-13" type="line"/>
			<point x="305" y="-154" type="line"/>
			<point x="324" y="-160" type="line"/>
			<point x="355" y="-28" type="line" smooth="yes"/>
			<point x="356" y="-24"/>
			<point x="357" y="-19"/>
			<point x="357" y="-15" type="curve" smooth="yes"/>
			<point x="357" y="-4"/>
			<point x="350" y="4"/>
			<point x="336" y="8" type="curve" smooth="yes"/>
			<point x="272" y="26" type="line" smooth="yes"/>
			<point x="126" y="68"/>
			<point x="81" y="116"/>
			<point x="81" y="219" type="curve" smooth="yes"/>
			<point x="81" y="235" type="line" smooth="yes"/>
			<point x="81" y="324"/>
			<point x="140" y="396"/>
			<point x="248" y="396" type="curve" smooth="yes"/>
			<point x="318" y="396" type="line"/>
			<point x="318" y="415" type="line"/>
			<point x="247" y="415" type="line" smooth="yes"/>
			<point x="167" y="415"/>
			<point x="114" y="470"/>
			<point x="114" y="560" type="curve" smooth="yes"/>
			<point x="114" y="574" type="line" smooth="yes"/>
			<point x="114" y="646"/>
			<point x="165" y="721"/>
			<point x="268" y="721" type="curve" smooth="yes"/>
		</contour>
	</outline>
</glyph>
<glyph name="pi" format="2">
	<advance width="532"/>
	<unicode hex="03C0"/>
	<outline>
		<contour>
			<point x="402" y="487" type="line"/>
			<point x="498" y="487" type="line"/>
			<point x="498" y="506" type="line"/>
			<point x="27" y="506" type="line"/>
			<point x="27" y="487" type="line"/>
			<point x="113" y="487" type="line"/>
			<point x="113" y="0" type="line"/>
			<point x="134" y="0" type="line"/>
			<point x="134" y="487" type="line"/>
			<point x="381" y="487" type="line"/>
			<point x="381" y="29" type="line" smooth="yes"/>
			<point x="381" y="9"/>
			<point x="390" y="0"/>
			<point x="409" y="0" type="curve" smooth="yes"/>
			<point x="469" y="0" type="line"/>
			<point x="469" y="19" type="line"/>
			<point x="402" y="19" type="line"/>
		</contour>
	</outline>
</glyph>
<glyph name="rho" format="2">
	<advance width="483"/>
	<unicode hex="03C1"/>
	<outline>
		<contour>
			<point x="67" y="-200" type="line"/>
			<point x="88" y="-200" type="line"/>
			<point x="88" y="78" type="line"/>
			<point x="95" y="78" type="line"/>
			<point x="110" y="34"/>
			<point x="159" y="-12"/>
			<point x="238" y="-12" type="curve" smooth="yes"/>
			<point x="357" y="-12"/>
			<point x="429" y="77"/>
			<point x="429" y="253" type="curve" smooth="yes"/>
			<point x="429" y="428"/>
			<point x="361" y="518"/>
			<point x="248" y="518" type="curve" smooth="yes"/>
			<point x="135" y="518"/>
			<point x="67" y="428"/>
			<point x="67" y="253" type="curve"/>
		</contour>
		<contour>
			<point x="237" y="7" type="curve" smooth="yes"/>
			<point x="159" y="7"/>
			<point x="88" y="62"/>
			<point x="88" y="143" type="curve" smooth="yes"/>
			<point x="88" y="265" type="line" smooth="yes"/>
			<point x="88" y="413"/>
			<point x="147" y="499"/>
			<point x="248" y="499" type="curve" smooth="yes"/>
			<point x="348" y="499"/>
			<point x="406" y="413"/>
			<point x="406" y="277" type="curve" smooth="yes"/>
			<point x="406" y="229" type="line" smooth="yes"/>
			<point x="406" y="92"/>
			<point x="345" y="7"/>
		</contour>
	</outline>
</glyph>
<glyph name="sigma1" format="2">
	<advance width="438"/>
	<unicode hex="03C2"/>
	<outline>
		<contour>
			<point x="313" y="-154" type="line"/>
			<point x="332" y="-160" type="line"/>
			<point x="364" y="-28" type="line" smooth="yes"/>
			<point x="365" y="-24"/>
			<point x="365" y="-19"/>
			<point x="365" y="-15" type="curve" smooth="yes"/>
			<point x="365" y="-6"/>
			<point x="361" y="3"/>
			<point x="344" y="8" type="curve" smooth="yes"/>
			<point x="280" y="26" type="line" smooth="yes"/>
			<point x="140" y="66"/>
			<point x="77" y="133"/>
			<point x="77" y="257" type="curve" smooth="yes"/>
			<point x="77" y="289" type="line" smooth="yes"/>
			<point x="77" y="411"/>
			<point x="137" y="499"/>
			<point x="243" y="499" type="curve" smooth="yes"/>
			<point x="307" y="499"/>
			<point x="346" y="467"/>
			<point x="375" y="409" type="curve"/>
			<point x="392" y="418" type="line"/>
			<point x="365" y="478"/>
			<point x="315" y="518"/>
			<point x="243" y="518" type="curve" smooth="yes"/>
			<point x="125" y="518"/>
			<point x="54" y="424"/>
			<point x="54" y="273" type="curve" smooth="yes"/>
			<point x="54" y="118"/>
			<point x="130" y="49"/>
			<point x="276" y="7" type="curve" smooth="yes"/>
			<point x="346" y="-13" type="line"/>
		</contour>
	</outline>
</glyph>
<glyph name="sigma" format="2">
	<advance width="496"/>
	<unicode hex="03C3"/>
	<outline>
		<contour>
			<point x="472" y="487" type="line"/>
			<point x="472" y="506" type="line"/>
			<point x="249" y="506" type="line" smooth="yes"/>
			<point x="128" y="506"/>
			<point x="54" y="413"/>
			<point x="54" y="247" type="curve" smooth="yes"/>
			<point x="54" y="78"/>
			<point x="125" y="-12"/>
			<point x="244" y="-12" type="curve" smooth="yes"/>
			<point x="363" y="-12"/>
			<point x="434" y="79"/>
			<point x="434" y="247" type="curve" smooth="yes"/>
			<point x="434" y="367"/>
			<point x="399" y="440"/>
			<point x="333" y="481" type="curve"/>
			<point x="333" y="487" type="line"/>
		</contour>
		<contour>
			<point x="307" y="487" type="line"/>
			<point x="380" y="437"/>
			<point x="411" y="360"/>
			<point x="411" y="271" type="curve" smooth="yes"/>
			<point x="411" y="223" type="line" smooth="yes"/>
			<point x="411" y="93"/>
			<point x="350" y="7"/>
			<point x="244" y="7" type="curve" smooth="yes"/>
			<point x="137" y="7"/>
			<point x="77" y="93"/>
			<point x="77" y="223" type="curve" smooth="yes"/>
			<point x="77" y="271" type="line" smooth="yes"/>
			<point x="77" y="398"/>
			<point x="139" y="487"/>
			<point x="249" y="487" type="curve" smooth="yes"/>
		</contour>
	</outline>
</glyph>
<glyph name="tau" format="2">
	<advance width="434"/>
	<unicode hex="03C4"/>
	<outline>
		<contour>
			<point x="325" y="0" type="line"/>
			<point x="325" y="19" type="line"/>
			<point x="219" y="19" type="line"/>
			<point x="219" y="487" type="line"/>
			<point x="400" y="487" type="line"/>
			<point x="400" y="506" type="line"/>
			<point x="31" y="506" type="line"/>
			<point x="31" y="487" type="line"/>
			<point x="198" y="487" type="line"/>
			<point x="198" y="29" type="line" smooth="yes"/>
			<point x="198" y="9"/>
			<point x="207" y="0"/>
			<point x="226" y="0" type="curve" smooth="yes"/>
		</contour>
	</outline>
</glyph>
<glyph name="upsilon" format="2">
	<advance width="492"/>
	<unicode hex="03C5"/>
	<anchor x="246" y="540" name="top"/>
	<outline>
		<contour>
			<point x="106" y="506" type="line"/>
			<point x="85" y="506" type="line"/>
			<point x="85" y="229" type="line" smooth="yes"/>
			<point x="85" y="54"/>
			<point x="134" y="-12"/>
			<point x="246" y="-12" type="curve" smooth="yes"/>
			<point x="358" y="-12"/>
			<point x="407" y="53"/>
			<point x="407" y="229" type="curve" smooth="yes"/>
			<point x="407" y="506" type="line"/>
			<point x="386" y="506" type="line"/>
			<point x="386" y="215" type="line" smooth="yes"/>
			<point x="386" y="57"/>
			<point x="339" y="7"/>
			<point x="246" y="7" type="curve" smooth="yes"/>
			<point x="153" y="7"/>
			<point x="106" y="58"/>
			<point x="106" y="215" type="curve" smooth="yes"/>
		</contour>
	</outline>
</glyph>
<glyph name="phi" format="2">
	<advance width="611"/>
	<unicode hex="03C6"/>
	<outline>
		<contour>
			<point x="284" y="-200" type="line"/>
			<point x="305" y="-200" type="line"/>
			<point x="305" y="-12" type="line"/>
			<point x="464" y="-12"/>
			<point x="552" y="71"/>
			<point x="552" y="267" type="curve" smooth="yes"/>
			<point x="552" y="445"/>
			<point x="505" y="518"/>
			<point x="418" y="518" type="curve" smooth="yes"/>
			<point x="331" y="518"/>
			<point x="284" y="446"/>
			<point x="284" y="271" type="curve" smooth="yes"/>
			<point x="284" y="7" type="line"/>
			<point x="147" y="7"/>
			<point x="77" y="92"/>
			<point x="77" y="233" type="curve" smooth="yes"/>
			<point x="77" y="281" type="line" smooth="yes"/>
			<point x="77" y="378"/>
			<point x="109" y="463"/>
			<point x="177" y="501" type="curve"/>
			<point x="166" y="518" type="line"/>
			<point x="92" y="474"/>
			<point x="54" y="389"/>
			<point x="54" y="257" type="curve" smooth="yes"/>
			<point x="54" y="77"/>
			<point x="135" y="-12"/>
			<point x="284" y="-12" type="curve"/>
		</contour>
		<contour>
			<point x="305" y="281" type="line" smooth="yes"/>
			<point x="305" y="428"/>
			<point x="340" y="499"/>
			<point x="418" y="499" type="curve" smooth="yes"/>
			<point x="492" y="499"/>
			<point x="529" y="435"/>
			<point x="529" y="291" type="curve" smooth="yes"/>
			<point x="529" y="243" type="line" smooth="yes"/>
			<point x="529" y="88"/>
			<point x="454" y="7"/>
			<point x="305" y="7" type="curve"/>
		</contour>
	</outline>
</glyph>
<glyph name="chi" format="2">
	<advance width="412"/>
	<unicode hex="03C7"/>
	<outline>
		<contour>
			<point x="9" y="506" type="line"/>
			<point x="9" y="487" type="line"/>
			<point x="59" y="487" type="line"/>
			<point x="191" y="163" type="line"/>
			<point x="20" y="-200" type="line"/>
			<point x="42" y="-200" type="line"/>
			<point x="201" y="145" type="line"/>
			<point x="205" y="145" type="line"/>
			<point x="330" y="-181" type="line" smooth="yes"/>
			<point x="335" y="-195"/>
			<point x="343" y="-200"/>
			<point x="358" y="-200" type="curve" smooth="yes"/>
			<point x="402" y="-200" type="line"/>
			<point x="402" y="-181" type="line"/>
			<point x="352" y="-181" type="line"/>
			<point x="217" y="163" type="line"/>
			<point x="384" y="506" type="line"/>
			<point x="362" y="506" type="line"/>
			<point x="207" y="181" type="line"/>
			<point x="203" y="181" type="line"/>
			<point x="82" y="487" type="line" smooth="yes"/>
			<point x="76" y="502"/>
			<point x="68" y="506"/>
			<point x="53" y="506" type="curve" smooth="yes"/>
		</contour>
	</outline>
</glyph>
<glyph name="psi" format="2">
	<advance width="625"/>
	<unicode hex="03C8"/>
	<outline>
		<contour>
			<point x="323" y="-200" type="line"/>
			<point x="323" y="-12" type="line"/>
			<point x="472" y="-12"/>
			<point x="540" y="53"/>
			<point x="540" y="229" type="curve" smooth="yes"/>
			<point x="540" y="506" type="line"/>
			<point x="519" y="506" type="line"/>
			<point x="519" y="215" type="line" smooth="yes"/>
			<point x="519" y="55"/>
			<point x="450" y="7"/>
			<point x="323" y="7" type="curve"/>
			<point x="323" y="710" type="line"/>
			<point x="302" y="710" type="line"/>
			<point x="302" y="7" type="line"/>
			<point x="175" y="7"/>
			<point x="106" y="55"/>
			<point x="106" y="215" type="curve" smooth="yes"/>
			<point x="106" y="506" type="line"/>
			<point x="85" y="506" type="line"/>
			<point x="85" y="229" type="line" smooth="yes"/>
			<point x="85" y="53"/>
			<point x="153" y="-12"/>
			<point x="302" y="-12" type="curve"/>
			<point x="302" y="-200" type="line"/>
		</contour>
	</outline>
</glyph>
<glyph name="omega" format="2">
	<advance width="631"/>
	<unicode hex="03C9"/>
	<anchor x="315" y="540" name="top"/>
	<outline>
		<contour>
			<point x="326" y="349" type="line"/>
			<point x="305" y="349" type="line"/>
			<point x="305" y="225" type="line" smooth="yes"/>
			<point x="305" y="56"/>
			<point x="258" y="7"/>
			<point x="193" y="7" type="curve" smooth="yes"/>
			<point x="118" y="7"/>
			<point x="82" y="71"/>
			<point x="82" y="215" type="curve" smooth="yes"/>
			<point x="82" y="263" type="line" smooth="yes"/>
			<point x="82" y="378"/>
			<point x="114" y="463"/>
			<point x="182" y="501" type="curve"/>
			<point x="171" y="518" type="line"/>
			<point x="97" y="474"/>
			<point x="59" y="388"/>
			<point x="59" y="239" type="curve" smooth="yes"/>
			<point x="59" y="59"/>
			<point x="106" y="-12"/>
			<point x="192" y="-12" type="curve" smooth="yes"/>
			<point x="262" y="-12"/>
			<point x="303" y="38"/>
			<point x="314" y="130" type="curve"/>
			<point x="317" y="130" type="line"/>
			<point x="328" y="38"/>
			<point x="368" y="-12"/>
			<point x="438" y="-12" type="curve" smooth="yes"/>
			<point x="525" y="-12"/>
			<point x="572" y="60"/>
			<point x="572" y="239" type="curve" smooth="yes"/>
			<point x="572" y="395"/>
			<point x="530" y="476"/>
			<point x="459" y="518" type="curve"/>
			<point x="448" y="501" type="line"/>
			<point x="516" y="463"/>
			<point x="549" y="380"/>
			<point x="549" y="263" type="curve" smooth="yes"/>
			<point x="549" y="215" type="line" smooth="yes"/>
			<point x="549" y="72"/>
			<point x="513" y="7"/>
			<point x="438" y="7" type="curve" smooth="yes"/>
			<point x="373" y="7"/>
			<point x="326" y="55"/>
			<point x="326" y="225" type="curve" smooth="yes"/>
		</contour>
	</outline>
</glyph>
<glyph name="uni0404" format="2">
	<advance width="550"/>
	<unicode hex="0404"/>
	<outline>
		<contour>
			<point x="297" y="-12" type="curve" smooth="yes"/>
			<point x="395" y="-12"/>
			<point x="464" y="49"/>
			<point x="497" y="140" type="curve"/>
			<point x="478" y="148" type="line"/>
			<point x="448" y="61"/>
			<point x="386" y="8"/>
			<point x="297" y="8" type="curve" smooth="yes"/>
			<point x="166" y="8"/>
			<point x="87" y="114"/>
			<point x="87" y="328" type="curve" smooth="yes"/>
			<point x="87" y="349" type="line"/>
			<point x="78" y="344" type="line"/>
			<point x="397" y="344" type="line"/>
			<point x="397" y="364" type="line"/>
			<point x="80" y="364" type="line"/>
			<point x="87" y="360" type="line"/>
			<point x="87" y="370" type="line" smooth="yes"/>
			<point x="87" y="584"/>
			<point x="166" y="690"/>
			<point x="297" y="690" type="curve" smooth="yes"/>
			<point x="375" y="690"/>
			<point x="440" y="644"/>
			<point x="474" y="558" type="curve"/>
			<point x="492" y="567" type="line"/>
			<point x="458" y="652"/>
			<point x="389" y="710"/>
			<point x="297" y="710" type="curve" smooth="yes"/>
			<point x="148" y="710"/>
			<point x="63" y="589"/>
			<point x="63" y="349" type="curve" smooth="yes"/>
			<point x="63" y="109"/>
			<point x="148" y="-12"/>
		</contour>
	</outline>
</glyph>
<glyph name="uni0409" format="2">
	<advance width="880"/>
	<unicode hex="0409"/>
	<outline>
		<contour>
			<point x="7" y="0" type="line"/>
			<point x="44" y="0" type="line" smooth="yes"/>
			<point x="63" y="0"/>
			<point x="75" y="4"/>
			<point x="90" y="20" type="curve" smooth="yes"/>
			<point x="144" y="80"/>
			<point x="184" y="241"/>
			<point x="184" y="513" type="curve" smooth="yes"/>
			<point x="184" y="678" type="line"/>
			<point x="436" y="678" type="line"/>
			<point x="436" y="0" type="line"/>
			<point x="670" y="0" type="line" smooth="yes"/>
			<point x="773" y="0"/>
			<point x="827" y="79"/>
			<point x="827" y="199" type="curve" smooth="yes"/>
			<point x="827" y="319"/>
			<point x="773" y="398"/>
			<point x="670" y="398" type="curve" smooth="yes"/>
			<point x="458" y="398" type="line"/>
			<point x="458" y="698" type="line"/>
			<point x="162" y="698" type="line"/>
			<point x="162" y="513" type="line" smooth="yes"/>
			<point x="162" y="230"/>
			<point x="120" y="80"/>
			<point x="64" y="20" type="curve"/>
			<point x="7" y="20" type="line"/>
		</contour>
		<contour>
			<point x="458" y="20" type="line"/>
			<point x="458" y="378" type="line"/>
			<point x="670" y="378" type="line" smooth="yes"/>
			<point x="761" y="378"/>
			<point x="803" y="302"/>
			<point x="803" y="220" type="curve" smooth="yes"/>
			<point x="803" y="178" type="line" smooth="yes"/>
			<point x="803" y="96"/>
			<point x="761" y="20"/>
			<point x="670" y="20" type="curve" smooth="yes"/>
		</contour>
	</outline>
</glyph>
<glyph name="uni0411" format="2">
	<advance width="546"/>
	<unicode hex="0411"/>
	<outline>
		<contour>
			<point x="97" y="0" type="line" name="hr00"/>
			<point x="330" y="0" type="line" smooth="yes"/>
			<point x="433" y="0"/>
			<point x="488" y="78"/>
			<point x="488" y="199" type="curve" smooth="yes"/>
			<point x="488" y="320"/>
			<point x="433" y="398"/>
			<point x="330" y="398" type="curve" smooth="yes"/>
			<point x="119" y="398" type="line"/>
			<point x="119" y="678" type="line"/>
			<point x="434" y="678" type="line"/>
			<point x="434" y="698" type="line"/>
			<point x="97" y="698" type="line"/>
		</contour>
		<contour>
			<point x="119" y="20" type="line"/>
			<point x="119" y="378" type="line"/>
			<point x="330" y="378" type="line" smooth="yes"/>
			<point x="422" y="378"/>
			<point x="464" y="301"/>
			<point x="464" y="220" type="curve" smooth="yes"/>
			<point x="464" y="178" type="line" smooth="yes"/>
			<point x="464" y="97"/>
			<point x="422" y="20"/>
			<point x="330" y="20" type="curve" smooth="yes"/>
		</contour>
	</outline>
</glyph>
<glyph name="uni0414" format="2">
	<advance width="602"/>
	<unicode hex="0414"/>
	<outline>
		<contour>
			<point x="9" y="-150" type="line"/>
			<point x="31" y="-150" type="line"/>
			<point x="31" y="0" type="line"/>
			<point x="536" y="0" type="line"/>
			<point x="536" y="-150" type="line"/>
			<point x="558" y="-150" type="line"/>
			<point x="558" y="20" type="line"/>
			<point x="478" y="20" type="line"/>
			<point x="478" y="698" type="line"/>
			<point x="161" y="698" type="line"/>
			<point x="161" y="512" type="line" smooth="yes"/>
			<point x="161" y="279"/>
			<point x="129" y="111"/>
			<point x="73" y="20" type="curve"/>
			<point x="9" y="20" type="line"/>
		</contour>
		<contour>
			<point x="101" y="20" type="line"/>
			<point x="101" y="23" type="line"/>
			<point x="151" y="115"/>
			<point x="183" y="281"/>
			<point x="183" y="513" type="curve" smooth="yes"/>
			<point x="183" y="678" type="line"/>
			<point x="456" y="678" type="line"/>
			<point x="456" y="20" type="line"/>
		</contour>
	</outline>
</glyph>
<glyph name="uni0416" format="2">
	<advance width="817"/>
	<unicode hex="0416"/>
	<anchor x="409" y="698" name="top"/>
	<outline>
		<contour>
			<point x="40" y="0" type="line"/>
			<point x="85" y="0" type="line" smooth="yes"/>
			<point x="103" y="0"/>
			<point x="111" y="7"/>
			<point x="116" y="17" type="curve" smooth="yes"/>
			<point x="276" y="344" type="line"/>
			<point x="398" y="344" type="line"/>
			<point x="398" y="0" type="line"/>
			<point x="420" y="0" type="line"/>
			<point x="420" y="344" type="line"/>
			<point x="542" y="344" type="line"/>
			<point x="701" y="17" type="line" smooth="yes"/>
			<point x="706" y="7"/>
			<point x="714" y="0"/>
			<point x="732" y="0" type="curve" smooth="yes"/>
			<point x="777" y="0" type="line"/>
			<point x="777" y="20" type="line"/>
			<point x="724" y="20" type="line"/>
			<point x="575" y="327" type="line" smooth="yes"/>
			<point x="567" y="344"/>
			<point x="557" y="351"/>
			<point x="545" y="351" type="curve"/>
			<point x="545" y="356" type="line"/>
			<point x="558" y="357"/>
			<point x="566" y="364"/>
			<point x="574" y="380" type="curve" smooth="yes"/>
			<point x="713" y="678" type="line"/>
			<point x="766" y="678" type="line"/>
			<point x="766" y="698" type="line"/>
			<point x="722" y="698" type="line" smooth="yes"/>
			<point x="707" y="698"/>
			<point x="696" y="693"/>
			<point x="688" y="677" type="curve" smooth="yes"/>
			<point x="542" y="364" type="line"/>
			<point x="420" y="364" type="line"/>
			<point x="420" y="698" type="line"/>
			<point x="398" y="698" type="line"/>
			<point x="398" y="364" type="line"/>
			<point x="276" y="364" type="line"/>
			<point x="129" y="677" type="line" smooth="yes"/>
			<point x="121" y="693"/>
			<point x="111" y="698"/>
			<point x="95" y="698" type="curve" smooth="yes"/>
			<point x="51" y="698" type="line"/>
			<point x="51" y="678" type="line"/>
			<point x="104" y="678" type="line"/>
			<point x="243" y="380" type="line" smooth="yes"/>
			<point x="252" y="362"/>
			<point x="261" y="356"/>
			<point x="272" y="355" type="curve"/>
			<point x="272" y="350" type="line"/>
			<point x="260" y="350"/>
			<point x="251" y="345"/>
			<point x="242" y="327" type="curve" smooth="yes"/>
			<point x="93" y="20" type="line"/>
			<point x="40" y="20" type="line"/>
		</contour>
	</outline>
</glyph>
<glyph name="uni0418" format="2">
	<advance width="624"/>
	<unicode hex="0418"/>
	<anchor x="310" y="698" name="top"/>
	<outline>
		<contour>
			<point x="97" y="0" type="line"/>
			<point x="116" y="0" type="line"/>
			<point x="469" y="598" type="line"/>
			<point x="506" y="671" type="line"/>
			<point x="510" y="671" type="line"/>
			<point x="506" y="597" type="line"/>
			<point x="506" y="0" type="line"/>
			<point x="527" y="0" type="line"/>
			<point x="527" y="698" type="line"/>
			<point x="508" y="698" type="line"/>
			<point x="155" y="100" type="line"/>
			<point x="118" y="27" type="line"/>
			<point x="114" y="27" type="line"/>
			<point x="118" y="101" type="line"/>
			<point x="118" y="698" type="line"/>
			<point x="97" y="698" type="line"/>
		</contour>
	</outline>
</glyph>
<glyph name="uni0423" format="2">
	<advance width="517"/>
	<unicode hex="0423"/>
	<anchor x="270" y="698" name="top"/>
	<outline>
		<contour>
			<point x="142" y="0" type="line"/>
			<point x="213" y="0" type="line" smooth="yes"/>
			<point x="226" y="0"/>
			<point x="240" y="4"/>
			<point x="246" y="19" type="curve" smooth="yes"/>
			<point x="490" y="698" type="line"/>
			<point x="467" y="698" type="line"/>
			<point x="309" y="253" type="line"/>
			<point x="281" y="177" type="line"/>
			<point x="279" y="177" type="line"/>
			<point x="246" y="253" type="line"/>
			<point x="51" y="698" type="line"/>
			<point x="27" y="698" type="line"/>
			<point x="270" y="147" type="line"/>
			<point x="224" y="19" type="line"/>
			<point x="142" y="19" type="line"/>
		</contour>
	</outline>
</glyph>
<glyph name="uni0424" format="2">
	<advance width="734"/>
	<unicode hex="0424"/>
	<outline>
		<contour>
			<point x="356" y="-29" type="line"/>
			<point x="378" y="-29" type="line"/>
			<point x="378" y="61" type="line"/>
			<point x="428" y="61" type="line" smooth="yes"/>
			<point x="585" y="61"/>
			<point x="680" y="185"/>
			<point x="680" y="348" type="curve" smooth="yes"/>
			<point x="680" y="511"/>
			<point x="585" y="635"/>
			<point x="428" y="635" type="curve" smooth="yes"/>
			<point x="378" y="635" type="line"/>
			<point x="378" y="725" type="line"/>
			<point x="356" y="725" type="line"/>
			<point x="356" y="635" type="line"/>
			<point x="307" y="635" type="line" smooth="yes"/>
			<point x="150" y="635"/>
			<point x="54" y="512"/>
			<point x="54" y="348" type="curve" smooth="yes"/>
			<point x="54" y="184"/>
			<point x="150" y="61"/>
			<point x="307" y="61" type="curve" smooth="yes"/>
			<point x="356" y="61" type="line"/>
		</contour>
		<contour>
			<point x="307" y="81" type="line"/>
			<point x="160" y="81"/>
			<point x="78" y="208"/>
			<point x="78" y="318" type="curve" smooth="yes"/>
			<point x="78" y="378" type="line" smooth="yes"/>
			<point x="78" y="488"/>
			<point x="161" y="615"/>
			<point x="307" y="615" type="curve" smooth="yes"/>
			<point x="356" y="615" type="line"/>
			<point x="356" y="81" type="line"/>
		</contour>
		<contour>
			<point x="378" y="81" type="line"/>
			<point x="378" y="615" type="line"/>
			<point x="428" y="615" type="line" smooth="yes"/>
			<point x="574" y="615"/>
			<point x="656" y="487"/>
			<point x="656" y="378" type="curve" smooth="yes"/>
			<point x="656" y="318" type="line" smooth="yes"/>
			<point x="656" y="209"/>
			<point x="574" y="81"/>
			<point x="428" y="81" type="curve" smooth="yes"/>
		</contour>
	</outline>
</glyph>
<glyph name="uni0426" format="2">
	<advance width="638"/>
	<unicode hex="0426"/>
	<outline>
		<contour>
			<point x="572" y="-150" type="line"/>
			<point x="594" y="-150" type="line"/>
			<point x="594" y="20" type="line"/>
			<point x="514" y="20" type="line"/>
			<point x="514" y="698" type="line"/>
			<point x="492" y="698" type="line"/>
			<point x="492" y="20" type="line"/>
			<point x="119" y="20" type="line"/>
			<point x="119" y="698" type="line"/>
			<point x="97" y="698" type="line"/>
			<point x="97" y="0" type="line"/>
			<point x="572" y="0" type="line"/>
		</contour>
	</outline>
</glyph>
<glyph name="uni0427" format="2">
	<advance width="560"/>
	<unicode hex="0427"/>
	<anchor x="262" y="698" name="top"/>
	<outline>
		<contour>
			<point x="441" y="0" type="line"/>
			<point x="463" y="0" type="line"/>
			<point x="463" y="698" type="line"/>
			<point x="441" y="698" type="line"/>
			<point x="441" y="326" type="line"/>
			<point x="400" y="308"/>
			<point x="345" y="297"/>
			<point x="275" y="297" type="curve" smooth="yes"/>
			<point x="150" y="297"/>
			<point x="83" y="359"/>
			<point x="83" y="507" type="curve" smooth="yes"/>
			<point x="83" y="698" type="line"/>
			<point x="61" y="698" type="line"/>
			<point x="61" y="507" type="line" smooth="yes"/>
			<point x="61" y="351"/>
			<point x="129" y="277"/>
			<point x="273" y="277" type="curve" smooth="yes"/>
			<point x="342" y="277"/>
			<point x="397" y="288"/>
			<point x="437" y="305" type="curve"/>
			<point x="441" y="305" type="line"/>
		</contour>
	</outline>
</glyph>
<glyph name="uni0428" format="2">
	<advance width="816"/>
	<unicode hex="0428"/>
	<outline>
		<contour>
			<point x="97" y="0" type="line"/>
			<point x="719" y="0" type="line"/>
			<point x="719" y="698" type="line"/>
			<point x="697" y="698" type="line"/>
			<point x="697" y="22" type="line"/>
			<point x="419" y="22" type="line"/>
			<point x="419" y="698" type="line"/>
			<point x="397" y="698" type="line"/>
			<point x="397" y="22" type="line"/>
			<point x="119" y="22" type="line"/>
			<point x="119" y="698" type="line"/>
			<point x="97" y="698" type="line"/>
		</contour>
	</outline>
</glyph>
<glyph name="uni0429" format="2">
	<advance width="843"/>
	<unicode hex="0429"/>
	<outline>
		<contour>
			<point x="777" y="-150" type="line"/>
			<point x="799" y="-150" type="line"/>
			<point x="799" y="20" type="line"/>
			<point x="719" y="20" type="line"/>
			<point x="719" y="698" type="line"/>
			<point x="697" y="698" type="line"/>
			<point x="697" y="20" type="line"/>
			<point x="419" y="20" type="line"/>
			<point x="419" y="698" type="line"/>
			<point x="397" y="698" type="line"/>
			<point x="397" y="20" type="line"/>
			<point x="119" y="20" type="line"/>
			<point x="119" y="698" type="line"/>
			<point x="97" y="698" type="line"/>
			<point x="97" y="0" type="line"/>
			<point x="777" y="0" type="line"/>
		</contour>
	</outline>
</glyph>
<glyph name="uni0431" format="2">
	<advance width="491"/>
	<unicode hex="0431"/>
	<outline>
		<contour>
			<point x="247" y="-12" type="curve" smooth="yes"/>
			<point x="368" y="-12"/>
			<point x="437" y="83"/>
			<point x="437" y="247" type="curve" smooth="yes"/>
			<point x="437" y="411"/>
			<point x="370" y="506"/>
			<point x="247" y="506" type="curve" smooth="yes"/>
			<point x="180" y="506"/>
			<point x="115" y="476"/>
			<point x="87" y="378" type="curve"/>
			<point x="81" y="378" type="line"/>
			<point x="94" y="599"/>
			<point x="120" y="700"/>
			<point x="282" y="715" type="curve" smooth="yes"/>
			<point x="404" y="726" type="line"/>
			<point x="404" y="745" type="line"/>
			<point x="282" y="734" type="line" smooth="yes"/>
			<point x="106" y="718"/>
			<point x="57" y="621"/>
			<point x="57" y="270" type="curve" smooth="yes"/>
			<point x="57" y="207"/>
			<point x="63" y="157"/>
			<point x="74" y="122" type="curve" smooth="yes"/>
			<point x="101" y="36"/>
			<point x="159" y="-12"/>
		</contour>
		<contour>
			<point x="247" y="7" type="curve" smooth="yes"/>
			<point x="144" y="7"/>
			<point x="80" y="90"/>
			<point x="80" y="224" type="curve" smooth="yes"/>
			<point x="80" y="270" type="line" smooth="yes"/>
			<point x="80" y="405"/>
			<point x="144" y="487"/>
			<point x="247" y="487" type="curve" smooth="yes"/>
			<point x="351" y="487"/>
			<point x="414" y="405"/>
			<point x="414" y="270" type="curve" smooth="yes"/>
			<point x="414" y="224" type="line" smooth="yes"/>
			<point x="414" y="89"/>
			<point x="349" y="7"/>
		</contour>
	</outline>
</glyph>
<glyph name="uni0432" format="2">
	<advance width="495"/>
	<unicode hex="0432"/>
	<outline>
		<contour>
			<point x="94" y="0" type="line"/>
			<point x="309" y="0" type="line" smooth="yes"/>
			<point x="383" y="0"/>
			<point x="422" y="54"/>
			<point x="422" y="137" type="curve" smooth="yes"/>
			<point x="422" y="207"/>
			<point x="391" y="248"/>
			<point x="327" y="259" type="curve"/>
			<point x="327" y="264" type="line"/>
			<point x="374" y="278"/>
			<point x="402" y="316"/>
			<point x="402" y="382" type="curve" smooth="yes"/>
			<point x="402" y="464"/>
			<point x="363" y="506"/>
			<point x="299" y="506" type="curve" smooth="yes"/>
			<point x="94" y="506" type="line"/>
		</contour>
		<contour>
			<point x="115" y="19" type="line"/>
			<point x="115" y="250" type="line"/>
			<point x="294" y="250" type="line" smooth="yes"/>
			<point x="366" y="250"/>
			<point x="400" y="202"/>
			<point x="400" y="152" type="curve" smooth="yes"/>
			<point x="400" y="122" type="line" smooth="yes"/>
			<point x="400" y="70"/>
			<point x="371" y="19"/>
			<point x="308" y="19" type="curve" smooth="yes"/>
		</contour>
		<contour>
			<point x="115" y="269" type="line"/>
			<point x="115" y="487" type="line"/>
			<point x="298" y="487" type="line" smooth="yes"/>
			<point x="353" y="487"/>
			<point x="379" y="446"/>
			<point x="379" y="397" type="curve" smooth="yes"/>
			<point x="379" y="367" type="line" smooth="yes"/>
			<point x="379" y="315"/>
			<point x="350" y="269"/>
			<point x="289" y="269" type="curve" smooth="yes"/>
		</contour>
	</outline>
</glyph>
<glyph name="uni0433" format="2">
	<advance width="397"/>
	<unicode hex="0433"/>
	<anchor x="229" y="540" name="top"/>
	<outline>
		<contour>
			<point x="94" y="0" type="line"/>
			<point x="115" y="0" type="line"/>
			<point x="115" y="487" type="line"/>
			<point x="362" y="487" type="line"/>
			<point x="362" y="506" type="line"/>
			<point x="94" y="506" type="line"/>
		</contour>
	</outline>
</glyph>
<glyph name="uni0434" format="2">
	<advance width="496"/>
	<unicode hex="0434"/>
	<outline>
		<contour>
			<point x="5" y="-140" type="line"/>
			<point x="26" y="-140" type="line"/>
			<point x="26" y="0" type="line"/>
			<point x="435" y="0" type="line"/>
			<point x="435" y="-140" type="line"/>
			<point x="456" y="-140" type="line"/>
			<point x="456" y="19" type="line"/>
			<point x="388" y="19" type="line"/>
			<point x="388" y="506" type="line"/>
			<point x="127" y="506" type="line"/>
			<point x="127" y="355" type="line" smooth="yes"/>
			<point x="127" y="215"/>
			<point x="100" y="101"/>
			<point x="52" y="19" type="curve"/>
			<point x="5" y="19" type="line"/>
		</contour>
		<contour>
			<point x="74" y="19" type="line"/>
			<point x="117" y="89"/>
			<point x="148" y="212"/>
			<point x="148" y="355" type="curve" smooth="yes"/>
			<point x="148" y="487" type="line"/>
			<point x="367" y="487" type="line"/>
			<point x="367" y="19" type="line"/>
		</contour>
	</outline>
</glyph>
<glyph name="uni0437" format="2">
	<advance width="445"/>
	<unicode hex="0437"/>
	<anchor x="218" y="540" name="top"/>
	<outline>
		<contour>
			<point x="209" y="-12" type="curve" smooth="yes"/>
			<point x="312" y="-12"/>
			<point x="372" y="44"/>
			<point x="372" y="133" type="curve" smooth="yes"/>
			<point x="372" y="210"/>
			<point x="331" y="251"/>
			<point x="268" y="259" type="curve"/>
			<point x="268" y="264" type="line"/>
			<point x="323" y="274"/>
			<point x="361" y="319"/>
			<point x="361" y="388" type="curve" smooth="yes"/>
			<point x="361" y="468"/>
			<point x="307" y="518"/>
			<point x="217" y="518" type="curve" smooth="yes"/>
			<point x="132" y="518"/>
			<point x="83" y="478"/>
			<point x="55" y="418" type="curve"/>
			<point x="73" y="409" type="line"/>
			<point x="101" y="467"/>
			<point x="143" y="499"/>
			<point x="217" y="499" type="curve" smooth="yes"/>
			<point x="292" y="499"/>
			<point x="340" y="458"/>
			<point x="340" y="395" type="curve" smooth="yes"/>
			<point x="340" y="377" type="line" smooth="yes"/>
			<point x="340" y="318"/>
			<point x="291" y="270"/>
			<point x="223" y="270" type="curve" smooth="yes"/>
			<point x="133" y="270" type="line"/>
			<point x="133" y="251" type="line"/>
			<point x="224" y="251" type="line" smooth="yes"/>
			<point x="301" y="251"/>
			<point x="351" y="211"/>
			<point x="351" y="142" type="curve" smooth="yes"/>
			<point x="351" y="121" type="line" smooth="yes"/>
			<point x="351" y="53"/>
			<point x="293" y="7"/>
			<point x="209" y="7" type="curve" smooth="yes"/>
			<point x="140" y="7"/>
			<point x="93" y="37"/>
			<point x="63" y="95" type="curve"/>
			<point x="47" y="84" type="line"/>
			<point x="77" y="27"/>
			<point x="124" y="-12"/>
		</contour>
	</outline>
</glyph>
<glyph name="uni0438" format="2">
	<advance width="519"/>
	<unicode hex="0438"/>
	<anchor x="258" y="0" name="bottom"/>
	<anchor x="258" y="540" name="top"/>
	<outline>
		<contour>
			<point x="94" y="0" type="line"/>
			<point x="113" y="0" type="line"/>
			<point x="368" y="413" type="line"/>
			<point x="403" y="474" type="line"/>
			<point x="407" y="474" type="line"/>
			<point x="404" y="405" type="line"/>
			<point x="404" y="0" type="line"/>
			<point x="425" y="0" type="line"/>
			<point x="425" y="506" type="line"/>
			<point x="406" y="506" type="line"/>
			<point x="151" y="93" type="line"/>
			<point x="116" y="32" type="line"/>
			<point x="112" y="32" type="line"/>
			<point x="115" y="101" type="line"/>
			<point x="115" y="506" type="line"/>
			<point x="94" y="506" type="line"/>
		</contour>
	</outline>
</glyph>
<glyph name="uni0442" format="2">
	<advance width="431"/>
	<unicode hex="0442"/>
	<outline>
		<contour>
			<point x="205" y="0" type="line"/>
			<point x="226" y="0" type="line"/>
			<point x="226" y="487" type="line"/>
			<point x="400" y="487" type="line"/>
			<point x="400" y="506" type="line"/>
			<point x="31" y="506" type="line"/>
			<point x="31" y="487" type="line"/>
			<point x="205" y="487" type="line"/>
		</contour>
	</outline>
</glyph>
<glyph name="uni0444" format="2">
	<advance width="655"/>
	<unicode hex="0444"/>
	<outline>
		<contour>
			<point x="317" y="-200" type="line"/>
			<point x="338" y="-200" type="line"/>
			<point x="338" y="68" type="line"/>
			<point x="341" y="68" type="line"/>
			<point x="359" y="26"/>
			<point x="396" y="-12"/>
			<point x="451" y="-12" type="curve" smooth="yes"/>
			<point x="553" y="-12"/>
			<point x="598" y="78"/>
			<point x="598" y="253" type="curve" smooth="yes"/>
			<point x="598" y="428"/>
			<point x="553" y="518"/>
			<point x="451" y="518" type="curve" smooth="yes"/>
			<point x="396" y="518"/>
			<point x="359" y="480"/>
			<point x="341" y="438" type="curve"/>
			<point x="338" y="438" type="line"/>
			<point x="338" y="710" type="line"/>
			<point x="317" y="710" type="line"/>
			<point x="317" y="438" type="line"/>
			<point x="314" y="438" type="line"/>
			<point x="296" y="480"/>
			<point x="259" y="518"/>
			<point x="204" y="518" type="curve" smooth="yes"/>
			<point x="102" y="518"/>
			<point x="57" y="428"/>
			<point x="57" y="253" type="curve" smooth="yes"/>
			<point x="57" y="78"/>
			<point x="102" y="-12"/>
			<point x="204" y="-12" type="curve" smooth="yes"/>
			<point x="259" y="-12"/>
			<point x="296" y="26"/>
			<point x="314" y="68" type="curve"/>
			<point x="317" y="68" type="line"/>
		</contour>
		<contour>
			<point x="205" y="7" type="curve" smooth="yes"/>
			<point x="116" y="7"/>
			<point x="80" y="92"/>
			<point x="80" y="229" type="curve" smooth="yes"/>
			<point x="80" y="277" type="line" smooth="yes"/>
			<point x="80" y="414"/>
			<point x="116" y="499"/>
			<point x="205" y="499" type="curve" smooth="yes"/>
			<point x="272" y="499"/>
			<point x="317" y="430"/>
			<point x="317" y="387" type="curve" smooth="yes"/>
			<point x="317" y="119" type="line" smooth="yes"/>
			<point x="317" y="76"/>
			<point x="272" y="7"/>
		</contour>
		<contour>
			<point x="450" y="7" type="curve" smooth="yes"/>
			<point x="382" y="7"/>
			<point x="338" y="78"/>
			<point x="338" y="119" type="curve" smooth="yes"/>
			<point x="338" y="387" type="line" smooth="yes"/>
			<point x="338" y="428"/>
			<point x="382" y="499"/>
			<point x="450" y="499" type="curve" smooth="yes"/>
			<point x="539" y="499"/>
			<point x="575" y="414"/>
			<point x="575" y="277" type="curve" smooth="yes"/>
			<point x="575" y="229" type="line" smooth="yes"/>
			<point x="575" y="92"/>
			<point x="539" y="7"/>
		</contour>
	</outline>
</glyph>
<glyph name="uni0447" format="2">
	<advance width="470"/>
	<unicode hex="0447"/>
	<anchor x="214" y="540" name="top"/>
	<outline>
		<contour>
			<point x="355" y="0" type="line"/>
			<point x="376" y="0" type="line"/>
			<point x="376" y="506" type="line"/>
			<point x="355" y="506" type="line"/>
			<point x="355" y="346" type="line" smooth="yes"/>
			<point x="355" y="265"/>
			<point x="298" y="214"/>
			<point x="211" y="214" type="curve" smooth="yes"/>
			<point x="126" y="214"/>
			<point x="75" y="254"/>
			<point x="75" y="360" type="curve" smooth="yes"/>
			<point x="75" y="506" type="line"/>
			<point x="54" y="506" type="line"/>
			<point x="54" y="356" type="line" smooth="yes"/>
			<point x="54" y="244"/>
			<point x="112" y="195"/>
			<point x="209" y="195" type="curve" smooth="yes"/>
			<point x="289" y="195"/>
			<point x="334" y="234"/>
			<point x="352" y="278" type="curve"/>
			<point x="355" y="278" type="line"/>
		</contour>
	</outline>
</glyph>
<glyph name="uni0449" format="2">
	<advance width="716"/>
	<unicode hex="0449"/>
	<outline>
		<contour>
			<point x="655" y="-140" type="line"/>
			<point x="676" y="-140" type="line"/>
			<point x="676" y="19" type="line"/>
			<point x="608" y="19" type="line"/>
			<point x="608" y="506" type="line"/>
			<point x="587" y="506" type="line"/>
			<point x="587" y="19" type="line"/>
			<point x="362" y="19" type="line"/>
			<point x="362" y="506" type="line"/>
			<point x="341" y="506" type="line"/>
			<point x="341" y="19" type="line"/>
			<point x="115" y="19" type="line"/>
			<point x="115" y="506" type="line"/>
			<point x="94" y="506" type="line"/>
			<point x="94" y="0" type="line"/>
			<point x="655" y="0" type="line"/>
		</contour>
	</outline>
</glyph>
<glyph name="uni0452" format="2">
	<advance width="503"/>
	<unicode hex="0452"/>
	<outline>
		<contour>
			<point x="321" y="-200" type="line"/>
			<point x="389" y="-200" type="line" smooth="yes"/>
			<point x="409" y="-200"/>
			<point x="418" y="-191"/>
			<point x="418" y="-171" type="curve" smooth="yes"/>
			<point x="418" y="352" type="line" smooth="yes"/>
			<point x="418" y="451"/>
			<point x="365" y="518"/>
			<point x="270" y="518" type="curve" smooth="yes"/>
			<point x="196" y="518"/>
			<point x="140" y="480"/>
			<point x="123" y="430" type="curve"/>
			<point x="117" y="430" type="line"/>
			<point x="117" y="629" type="line"/>
			<point x="264" y="629" type="line"/>
			<point x="264" y="647" type="line"/>
			<point x="117" y="647" type="line"/>
			<point x="117" y="740" type="line"/>
			<point x="96" y="740" type="line"/>
			<point x="96" y="647" type="line"/>
			<point x="37" y="647" type="line"/>
			<point x="37" y="629" type="line"/>
			<point x="96" y="629" type="line"/>
			<point x="96" y="0" type="line" name="hr00"/>
			<point x="117" y="0" type="line"/>
			<point x="117" y="359" type="line" smooth="yes"/>
			<point x="117" y="447"/>
			<point x="188" y="499"/>
			<point x="269" y="499" type="curve" smooth="yes"/>
			<point x="351" y="499"/>
			<point x="397" y="444"/>
			<point x="397" y="352" type="curve" smooth="yes"/>
			<point x="397" y="-181" type="line"/>
			<point x="321" y="-181" type="line"/>
		</contour>
	</outline>
</glyph>
<glyph name="uni0454" format="2">
	<advance width="448"/>
	<unicode hex="0454"/>
	<outline>
		<contour>
			<point x="244" y="-12" type="curve" smooth="yes"/>
			<point x="323" y="-12"/>
			<point x="372" y="27"/>
			<point x="401" y="84" type="curve"/>
			<point x="386" y="95" type="line"/>
			<point x="357" y="40"/>
			<point x="314" y="7"/>
			<point x="244" y="7" type="curve" smooth="yes"/>
			<point x="137" y="7"/>
			<point x="77" y="93"/>
			<point x="77" y="229" type="curve" smooth="yes"/>
			<point x="77" y="246" type="line"/>
			<point x="315" y="246" type="line"/>
			<point x="315" y="265" type="line"/>
			<point x="77" y="265" type="line"/>
			<point x="77" y="277" type="line" smooth="yes"/>
			<point x="77" y="413"/>
			<point x="137" y="499"/>
			<point x="244" y="499" type="curve" smooth="yes"/>
			<point x="308" y="499"/>
			<point x="347" y="467"/>
			<point x="376" y="409" type="curve"/>
			<point x="393" y="418" type="line"/>
			<point x="366" y="478"/>
			<point x="316" y="518"/>
			<point x="244" y="518" type="curve" smooth="yes"/>
			<point x="125" y="518"/>
			<point x="54" y="428"/>
			<point x="54" y="253" type="curve" smooth="yes"/>
			<point x="54" y="78"/>
			<point x="125" y="-12"/>
		</contour>
	</outline>
</glyph>
<glyph name="uni0459" format="2">
	<advance width="691"/>
	<unicode hex="0459"/>
	<outline>
		<contour>
			<point x="4" y="0" type="line"/>
			<point x="42" y="0" type="line" smooth="yes"/>
			<point x="55" y="0"/>
			<point x="66" y="3"/>
			<point x="75" y="13" type="curve" smooth="yes"/>
			<point x="115" y="57"/>
			<point x="153" y="164"/>
			<point x="153" y="355" type="curve" smooth="yes"/>
			<point x="153" y="487" type="line"/>
			<point x="342" y="487" type="line"/>
			<point x="342" y="0" type="line"/>
			<point x="499" y="0" type="line" smooth="yes"/>
			<point x="590" y="0"/>
			<point x="640" y="58"/>
			<point x="640" y="147" type="curve" smooth="yes"/>
			<point x="640" y="235"/>
			<point x="590" y="293"/>
			<point x="499" y="293" type="curve" smooth="yes"/>
			<point x="363" y="293" type="line"/>
			<point x="363" y="506" type="line"/>
			<point x="132" y="506" type="line"/>
			<point x="132" y="355" type="line" smooth="yes"/>
			<point x="132" y="162"/>
			<point x="95" y="63"/>
			<point x="56" y="19" type="curve"/>
			<point x="4" y="19" type="line"/>
		</contour>
		<contour>
			<point x="363" y="19" type="line"/>
			<point x="363" y="274" type="line"/>
			<point x="498" y="274" type="line" smooth="yes"/>
			<point x="579" y="274"/>
			<point x="617" y="220"/>
			<point x="617" y="160" type="curve" smooth="yes"/>
			<point x="617" y="133" type="line" smooth="yes"/>
			<point x="617" y="73"/>
			<point x="579" y="19"/>
			<point x="498" y="19" type="curve" smooth="yes"/>
		</contour>
	</outline>
</glyph>
<glyph name="uni0462" format="2">
	<advance width="579"/>
	<unicode hex="0462"/>
	<outline>
		<contour>
			<point x="127" y="0" type="line"/>
			<point x="369" y="0" type="line" smooth="yes"/>
			<point x="472" y="0"/>
			<point x="526" y="78"/>
			<point x="526" y="199" type="curve" smooth="yes"/>
			<point x="526" y="320"/>
			<point x="472" y="398"/>
			<point x="369" y="398" type="curve" smooth="yes"/>
			<point x="149" y="398" type="line"/>
			<point x="149" y="564" type="line"/>
			<point x="355" y="564" type="line"/>
			<point x="355" y="584" type="line"/>
			<point x="149" y="584" type="line"/>
			<point x="149" y="698" type="line"/>
			<point x="127" y="698" type="line"/>
			<point x="127" y="584" type="line"/>
			<point x="26" y="584" type="line"/>
			<point x="26" y="564" type="line"/>
			<point x="127" y="564" type="line"/>
		</contour>
		<contour>
			<point x="149" y="20" type="line"/>
			<point x="149" y="378" type="line"/>
			<point x="369" y="378" type="line" smooth="yes"/>
			<point x="460" y="378"/>
			<point x="503" y="302"/>
			<point x="503" y="220" type="curve" smooth="yes"/>
			<point x="503" y="178" type="line" smooth="yes"/>
			<point x="503" y="96"/>
			<point x="460" y="20"/>
			<point x="369" y="20" type="curve" smooth="yes"/>
		</contour>
	</outline>
</glyph>
<glyph name="uni0463" format="2">
	<advance width="476"/>
	<unicode hex="0463"/>
	<outline>
		<contour>
			<point x="112" y="0" type="line"/>
			<point x="284" y="0" type="line" smooth="yes"/>
			<point x="376" y="0"/>
			<point x="425" y="58"/>
			<point x="425" y="147" type="curve" smooth="yes"/>
			<point x="425" y="235"/>
			<point x="376" y="293"/>
			<point x="284" y="293" type="curve" smooth="yes"/>
			<point x="133" y="293" type="line"/>
			<point x="133" y="487" type="line"/>
			<point x="288" y="487" type="line"/>
			<point x="288" y="506" type="line"/>
			<point x="133" y="506" type="line"/>
			<point x="133" y="710" type="line"/>
			<point x="112" y="710" type="line"/>
			<point x="112" y="506" type="line"/>
			<point x="27" y="506" type="line"/>
			<point x="27" y="487" type="line"/>
			<point x="112" y="487" type="line"/>
		</contour>
		<contour>
			<point x="133" y="19" type="line"/>
			<point x="133" y="274" type="line"/>
			<point x="284" y="274" type="line" smooth="yes"/>
			<point x="365" y="274"/>
			<point x="402" y="219"/>
			<point x="402" y="160" type="curve" smooth="yes"/>
			<point x="402" y="133" type="line" smooth="yes"/>
			<point x="402" y="74"/>
			<point x="365" y="19"/>
			<point x="284" y="19" type="curve" smooth="yes"/>
		</contour>
	</outline>
</glyph>
<glyph name="uni0472" format="2">
	<advance width="614"/>
	<unicode hex="0472"/>
	<anchor x="307" y="0" name="bottom"/>
	<anchor x="307" y="698" name="top"/>
	<outline>
		<contour>
			<point x="307" y="-12" type="curve" smooth="yes"/>
			<point x="463" y="-12"/>
			<point x="551" y="110"/>
			<point x="551" y="349" type="curve" smooth="yes"/>
			<point x="551" y="588"/>
			<point x="463" y="710"/>
			<point x="307" y="710" type="curve" smooth="yes"/>
			<point x="151" y="710"/>
			<point x="63" y="589"/>
			<point x="63" y="349" type="curve" smooth="yes"/>
			<point x="63" y="109"/>
			<point x="151" y="-12"/>
		</contour>
		<contour>
			<point x="307" y="8" type="curve" smooth="yes"/>
			<point x="170" y="8"/>
			<point x="87" y="118"/>
			<point x="87" y="328" type="curve" smooth="yes"/>
			<point x="87" y="349" type="line"/>
			<point x="80" y="330" type="line"/>
			<point x="101" y="358"/>
			<point x="137" y="380"/>
			<point x="183" y="380" type="curve" smooth="yes"/>
			<point x="219" y="380"/>
			<point x="250" y="369"/>
			<point x="301" y="343" type="curve" smooth="yes"/>
			<point x="357" y="315"/>
			<point x="393" y="304"/>
			<point x="429" y="304" type="curve" smooth="yes"/>
			<point x="481" y="304"/>
			<point x="521" y="329"/>
			<point x="542" y="360" type="curve"/>
			<point x="527" y="351" type="line"/>
			<point x="527" y="328" type="line" smooth="yes"/>
			<point x="527" y="117"/>
			<point x="443" y="8"/>
		</contour>
		<contour>
			<point x="307" y="690" type="curve" smooth="yes"/>
			<point x="443" y="690"/>
			<point x="527" y="581"/>
			<point x="527" y="370" type="curve" smooth="yes"/>
			<point x="527" y="357" type="line"/>
			<point x="537" y="378" type="line"/>
			<point x="512" y="345"/>
			<point x="477" y="324"/>
			<point x="431" y="324" type="curve" smooth="yes"/>
			<point x="396" y="324"/>
			<point x="364" y="335"/>
			<point x="312" y="361" type="curve" smooth="yes"/>
			<point x="257" y="389"/>
			<point x="223" y="400"/>
			<point x="184" y="400" type="curve" smooth="yes"/>
			<point x="132" y="400"/>
			<point x="93" y="375"/>
			<point x="72" y="344" type="curve"/>
			<point x="87" y="355" type="line"/>
			<point x="87" y="370" type="line" smooth="yes"/>
			<point x="87" y="580"/>
			<point x="170" y="690"/>
		</contour>
	</outline>
</glyph>
<glyph name="uni0473" format="2">
	<advance width="488"/>
	<unicode hex="0473"/>
	<anchor x="244" y="0" name="bottom"/>
	<anchor x="244" y="540" name="top"/>
	<outline>
		<contour>
			<point x="244" y="-12" type="curve" smooth="yes"/>
			<point x="363" y="-12"/>
			<point x="434" y="79"/>
			<point x="434" y="253" type="curve" smooth="yes"/>
			<point x="434" y="427"/>
			<point x="363" y="518"/>
			<point x="244" y="518" type="curve" smooth="yes"/>
			<point x="125" y="518"/>
			<point x="54" y="428"/>
			<point x="54" y="253" type="curve" smooth="yes"/>
			<point x="54" y="78"/>
			<point x="125" y="-12"/>
		</contour>
		<contour>
			<point x="244" y="7" type="curve" smooth="yes"/>
			<point x="137" y="7"/>
			<point x="77" y="93"/>
			<point x="77" y="229" type="curve" smooth="yes"/>
			<point x="77" y="249" type="line"/>
			<point x="99" y="275"/>
			<point x="119" y="287"/>
			<point x="149" y="287" type="curve" smooth="yes"/>
			<point x="177" y="287"/>
			<point x="195" y="277"/>
			<point x="238" y="251" type="curve" smooth="yes"/>
			<point x="285" y="223"/>
			<point x="310" y="212"/>
			<point x="337" y="212" type="curve" smooth="yes"/>
			<point x="372" y="212"/>
			<point x="390" y="225"/>
			<point x="411" y="247" type="curve"/>
			<point x="411" y="229" type="line" smooth="yes"/>
			<point x="411" y="93"/>
			<point x="350" y="7"/>
		</contour>
		<contour>
			<point x="77" y="277" type="line" smooth="yes"/>
			<point x="77" y="413"/>
			<point x="137" y="499"/>
			<point x="244" y="499" type="curve" smooth="yes"/>
			<point x="350" y="499"/>
			<point x="411" y="413"/>
			<point x="411" y="277" type="curve" smooth="yes"/>
			<point x="411" y="270" type="line"/>
			<point x="388" y="244"/>
			<point x="369" y="232"/>
			<point x="338" y="232" type="curve" smooth="yes"/>
			<point x="312" y="232"/>
			<point x="293" y="242"/>
			<point x="249" y="268" type="curve" smooth="yes"/>
			<point x="202" y="296"/>
			<point x="180" y="307"/>
			<point x="150" y="307" type="curve" smooth="yes"/>
			<point x="117" y="307"/>
			<point x="97" y="294"/>
			<point x="77" y="272" type="curve"/>
		</contour>
	</outline>
</glyph>
<glyph name="uni0474" format="2">
	<advance width="558"/>
	<unicode hex="0474"/>
	<outline>
		<contour>
			<point x="272" y="0" type="line"/>
			<point x="464" y="678" type="line"/>
			<point x="549" y="678" type="line"/>
			<point x="549" y="698" type="line"/>
			<point x="472" y="698" type="line" smooth="yes"/>
			<point x="453" y="698"/>
			<point x="443" y="688"/>
			<point x="438" y="670" type="curve" smooth="yes"/>
			<point x="341" y="317" type="line"/>
			<point x="259" y="25" type="line"/>
			<point x="257" y="25" type="line"/>
			<point x="168" y="317" type="line"/>
			<point x="51" y="698" type="line"/>
			<point x="27" y="698" type="line"/>
			<point x="243" y="0" type="line"/>
		</contour>
	</outline>
</glyph>
<glyph name="uni0475" format="2">
	<advance width="434"/>
	<unicode hex="0475"/>
	<outline>
		<contour>
			<point x="217" y="0" type="line"/>
			<point x="357" y="487" type="line"/>
			<point x="425" y="487" type="line"/>
			<point x="425" y="506" type="line"/>
			<point x="365" y="506" type="line" smooth="yes"/>
			<point x="348" y="506"/>
			<point x="339" y="498"/>
			<point x="335" y="483" type="curve" smooth="yes"/>
			<point x="266" y="239" type="line"/>
			<point x="206" y="24" type="line"/>
			<point x="203" y="24" type="line"/>
			<point x="133" y="238" type="line"/>
			<point x="44" y="506" type="line"/>
			<point x="22" y="506" type="line"/>
			<point x="191" y="0" type="line"/>
		</contour>
	</outline>
</glyph>
<glyph name="uni0490" format="2">
	<advance width="456"/>
	<unicode hex="0490"/>
	<outline>
		<contour>
			<point x="97" y="0" type="line"/>
			<point x="119" y="0" type="line"/>
			<point x="119" y="678" type="line"/>
			<point x="417" y="678" type="line"/>
			<point x="417" y="848" type="line"/>
			<point x="395" y="848" type="line"/>
			<point x="395" y="698" type="line"/>
			<point x="97" y="698" type="line"/>
		</contour>
	</outline>
</glyph>
<glyph name="uni0492" format="2">
	<advance width="473"/>
	<unicode hex="0492"/>
	<outline>
		<contour>
			<point x="115" y="0" type="line"/>
			<point x="137" y="0" type="line"/>
			<point x="137" y="365" type="line"/>
			<point x="334" y="365" type="line"/>
			<point x="334" y="384" type="line"/>
			<point x="137" y="384" type="line"/>
			<point x="137" y="678" type="line"/>
			<point x="434" y="678" type="line"/>
			<point x="434" y="698" type="line"/>
			<point x="115" y="698" type="line"/>
			<point x="115" y="384" type="line"/>
			<point x="23" y="384" type="line"/>
			<point x="23" y="365" type="line"/>
			<point x="115" y="365" type="line"/>
		</contour>
	</outline>
</glyph>
<glyph name="uni0493" format="2">
	<advance width="406"/>
	<unicode hex="0493"/>
	<outline>
		<contour>
			<point x="102" y="0" type="line"/>
			<point x="123" y="0" type="line"/>
			<point x="123" y="257" type="line"/>
			<point x="290" y="257" type="line"/>
			<point x="290" y="275" type="line"/>
			<point x="123" y="275" type="line"/>
			<point x="123" y="487" type="line"/>
			<point x="371" y="487" type="line"/>
			<point x="371" y="506" type="line"/>
			<point x="102" y="506" type="line"/>
			<point x="102" y="275" type="line"/>
			<point x="27" y="275" type="line"/>
			<point x="27" y="257" type="line"/>
			<point x="102" y="257" type="line"/>
		</contour>
	</outline>
</glyph>
<glyph name="uni0494" format="2">
	<advance width="551"/>
	<unicode hex="0494"/>
	<outline>
		<contour>
			<point x="319" y="-164" type="line"/>
			<point x="375" y="-164" type="line" smooth="yes"/>
			<point x="443" y="-164"/>
			<point x="490" y="-112"/>
			<point x="490" y="42" type="curve" smooth="yes"/>
			<point x="490" y="156" type="line" smooth="yes"/>
			<point x="490" y="310"/>
			<point x="422" y="384"/>
			<point x="271" y="384" type="curve" smooth="yes"/>
			<point x="219" y="384"/>
			<point x="161" y="377"/>
			<point x="124" y="361" type="curve"/>
			<point x="119" y="361" type="line"/>
			<point x="119" y="678" type="line"/>
			<point x="399" y="678" type="line"/>
			<point x="399" y="698" type="line"/>
			<point x="97" y="698" type="line"/>
			<point x="97" y="0" type="line"/>
			<point x="119" y="0" type="line"/>
			<point x="119" y="339" type="line"/>
			<point x="152" y="354"/>
			<point x="215" y="364"/>
			<point x="269" y="364" type="curve" smooth="yes"/>
			<point x="401" y="364"/>
			<point x="468" y="302"/>
			<point x="468" y="156" type="curve" smooth="yes"/>
			<point x="468" y="42" type="line" smooth="yes"/>
			<point x="468" y="-77"/>
			<point x="439" y="-130"/>
			<point x="396" y="-144" type="curve"/>
			<point x="319" y="-144" type="line"/>
		</contour>
	</outline>
</glyph>
<glyph name="uni0495" format="2">
	<advance width="474"/>
	<unicode hex="0495"/>
	<outline>
		<contour>
			<point x="280" y="-200" type="line"/>
			<point x="343" y="-200" type="line" smooth="yes"/>
			<point x="380" y="-200"/>
			<point x="416" y="-154"/>
			<point x="416" y="-39" type="curve" smooth="yes"/>
			<point x="416" y="115" type="line" smooth="yes"/>
			<point x="416" y="231"/>
			<point x="362" y="276"/>
			<point x="261" y="276" type="curve" smooth="yes"/>
			<point x="181" y="276"/>
			<point x="136" y="237"/>
			<point x="121" y="193" type="curve"/>
			<point x="115" y="193" type="line"/>
			<point x="115" y="487" type="line"/>
			<point x="362" y="487" type="line"/>
			<point x="362" y="506" type="line"/>
			<point x="94" y="506" type="line"/>
			<point x="94" y="0" type="line"/>
			<point x="115" y="0" type="line"/>
			<point x="115" y="125" type="line" smooth="yes"/>
			<point x="115" y="206"/>
			<point x="172" y="257"/>
			<point x="259" y="257" type="curve" smooth="yes"/>
			<point x="349" y="257"/>
			<point x="395" y="221"/>
			<point x="395" y="111" type="curve" smooth="yes"/>
			<point x="395" y="-35" type="line" smooth="yes"/>
			<point x="395" y="-116"/>
			<point x="380" y="-155"/>
			<point x="357" y="-181" type="curve"/>
			<point x="280" y="-181" type="line"/>
		</contour>
	</outline>
</glyph>
<glyph name="uni0497" format="2">
	<advance width="672"/>
	<unicode hex="0497"/>
	<outline>
		<contour>
			<point x="616" y="-140" type="line"/>
			<point x="637" y="-140" type="line"/>
			<point x="637" y="19" type="line"/>
			<point x="576" y="19" type="line"/>
			<point x="481" y="224" type="line" smooth="yes"/>
			<point x="466" y="256"/>
			<point x="461" y="261"/>
			<point x="448" y="263" type="curve"/>
			<point x="448" y="268" type="line"/>
			<point x="461" y="270"/>
			<point x="468" y="281"/>
			<point x="479" y="303" type="curve" smooth="yes"/>
			<point x="569" y="487" type="line"/>
			<point x="621" y="487" type="line"/>
			<point x="621" y="506" type="line"/>
			<point x="577" y="506" type="line" smooth="yes"/>
			<point x="562" y="506"/>
			<point x="554" y="500"/>
			<point x="546" y="484" type="curve" smooth="yes"/>
			<point x="443" y="275" type="line"/>
			<point x="343" y="275" type="line"/>
			<point x="343" y="506" type="line"/>
			<point x="322" y="506" type="line"/>
			<point x="322" y="275" type="line"/>
			<point x="222" y="275" type="line"/>
			<point x="119" y="484" type="line" smooth="yes"/>
			<point x="111" y="500"/>
			<point x="103" y="506"/>
			<point x="88" y="506" type="curve" smooth="yes"/>
			<point x="44" y="506" type="line"/>
			<point x="44" y="487" type="line"/>
			<point x="96" y="487" type="line"/>
			<point x="186" y="303" type="line" smooth="yes"/>
			<point x="200" y="275"/>
			<point x="206" y="270"/>
			<point x="217" y="268" type="curve"/>
			<point x="217" y="263" type="line"/>
			<point x="204" y="261"/>
			<point x="198" y="254"/>
			<point x="184" y="224" type="curve" smooth="yes"/>
			<point x="89" y="19" type="line"/>
			<point x="38" y="19" type="line"/>
			<point x="38" y="0" type="line"/>
			<point x="87" y="0" type="line" smooth="yes"/>
			<point x="99" y="0"/>
			<point x="105" y="4"/>
			<point x="111" y="16" type="curve" smooth="yes"/>
			<point x="222" y="256" type="line"/>
			<point x="322" y="256" type="line"/>
			<point x="322" y="0" type="line"/>
			<point x="343" y="0" type="line"/>
			<point x="343" y="256" type="line"/>
			<point x="443" y="256" type="line"/>
			<point x="554" y="16" type="line" smooth="yes"/>
			<point x="560" y="4"/>
			<point x="566" y="0"/>
			<point x="578" y="0" type="curve" smooth="yes"/>
			<point x="631" y="0" type="line"/>
			<point x="616" y="10" type="line"/>
		</contour>
	</outline>
</glyph>
<glyph name="uni0498" format="2">
	<advance width="518"/>
	<unicode hex="0498"/>
	<outline>
		<contour>
			<point x="244" y="-150" type="line"/>
			<point x="265" y="-150" type="line"/>
			<point x="265" y="-12" type="line"/>
			<point x="385" y="-8"/>
			<point x="460" y="66"/>
			<point x="460" y="186" type="curve" smooth="yes"/>
			<point x="460" y="283"/>
			<point x="404" y="341"/>
			<point x="320" y="351" type="curve"/>
			<point x="320" y="357" type="line"/>
			<point x="394" y="372"/>
			<point x="446" y="430"/>
			<point x="446" y="535" type="curve" smooth="yes"/>
			<point x="446" y="641"/>
			<point x="372" y="710"/>
			<point x="258" y="710" type="curve" smooth="yes"/>
			<point x="163" y="710"/>
			<point x="101" y="665"/>
			<point x="75" y="599" type="curve"/>
			<point x="93" y="591" type="line"/>
			<point x="120" y="652"/>
			<point x="171" y="690"/>
			<point x="258" y="690" type="curve" smooth="yes"/>
			<point x="355" y="690"/>
			<point x="422" y="631"/>
			<point x="422" y="545" type="curve" smooth="yes"/>
			<point x="422" y="521" type="line" smooth="yes"/>
			<point x="422" y="429"/>
			<point x="356" y="364"/>
			<point x="261" y="364" type="curve" smooth="yes"/>
			<point x="159" y="364" type="line"/>
			<point x="159" y="344" type="line"/>
			<point x="263" y="344" type="line" smooth="yes"/>
			<point x="369" y="344"/>
			<point x="436" y="286"/>
			<point x="436" y="197" type="curve" smooth="yes"/>
			<point x="436" y="169" type="line" smooth="yes"/>
			<point x="436" y="72"/>
			<point x="361" y="8"/>
			<point x="254" y="8" type="curve" smooth="yes"/>
			<point x="171" y="8"/>
			<point x="110" y="37"/>
			<point x="71" y="106" type="curve"/>
			<point x="53" y="95" type="line"/>
			<point x="93" y="25"/>
			<point x="157" y="-10"/>
			<point x="244" y="-12" type="curve"/>
		</contour>
	</outline>
</glyph>
<glyph name="uni0499" format="2">
	<advance width="445"/>
	<unicode hex="0499"/>
	<outline>
		<contour>
			<point x="199" y="-140" type="line"/>
			<point x="220" y="-140" type="line"/>
			<point x="220" y="-12" type="line"/>
			<point x="316" y="-8"/>
			<point x="372" y="47"/>
			<point x="372" y="133" type="curve" smooth="yes"/>
			<point x="372" y="210"/>
			<point x="331" y="251"/>
			<point x="268" y="260" type="curve"/>
			<point x="268" y="263" type="line"/>
			<point x="323" y="274"/>
			<point x="361" y="319"/>
			<point x="361" y="388" type="curve" smooth="yes"/>
			<point x="361" y="468"/>
			<point x="307" y="518"/>
			<point x="217" y="518" type="curve" smooth="yes"/>
			<point x="132" y="518"/>
			<point x="83" y="478"/>
			<point x="55" y="418" type="curve"/>
			<point x="73" y="409" type="line"/>
			<point x="101" y="467"/>
			<point x="143" y="499"/>
			<point x="217" y="499" type="curve" smooth="yes"/>
			<point x="292" y="499"/>
			<point x="340" y="458"/>
			<point x="340" y="395" type="curve" smooth="yes"/>
			<point x="340" y="377" type="line" smooth="yes"/>
			<point x="340" y="318"/>
			<point x="291" y="270"/>
			<point x="223" y="270" type="curve" smooth="yes"/>
			<point x="133" y="270" type="line"/>
			<point x="133" y="251" type="line"/>
			<point x="224" y="251" type="line" smooth="yes"/>
			<point x="301" y="251"/>
			<point x="351" y="211"/>
			<point x="351" y="142" type="curve" smooth="yes"/>
			<point x="351" y="121" type="line" smooth="yes"/>
			<point x="351" y="53"/>
			<point x="293" y="7"/>
			<point x="209" y="7" type="curve" smooth="yes"/>
			<point x="140" y="7"/>
			<point x="93" y="37"/>
			<point x="63" y="95" type="curve"/>
			<point x="47" y="84" type="line"/>
			<point x="77" y="28"/>
			<point x="120" y="-9"/>
			<point x="199" y="-12" type="curve"/>
		</contour>
	</outline>
</glyph>
<glyph name="alpha.alt01" format="2">
	<advance width="518"/>
	<anchor x="245" y="0" name="bottom"/>
	<anchor x="491" y="0" name="bottomright"/>
	<anchor x="245" y="540" name="top"/>
	<outline>
		<contour>
			<point x="491" y="19" type="line"/>
			<point x="416" y="19" type="line"/>
			<point x="416" y="506" type="line"/>
			<point x="395" y="506" type="line"/>
			<point x="395" y="428" type="line"/>
			<point x="388" y="428" type="line"/>
			<point x="373" y="472"/>
			<point x="323" y="518"/>
			<point x="245" y="518" type="curve" smooth="yes"/>
			<point x="125" y="518"/>
			<point x="54" y="428"/>
			<point x="54" y="253" type="curve" smooth="yes"/>
			<point x="54" y="78"/>
			<point x="125" y="-12"/>
			<point x="245" y="-12" type="curve" smooth="yes"/>
			<point x="323" y="-12"/>
			<point x="373" y="34"/>
			<point x="388" y="78" type="curve"/>
			<point x="406" y="78" type="line"/>
			<point x="395" y="95" type="line"/>
			<point x="395" y="29" type="line" smooth="yes"/>
			<point x="395" y="9"/>
			<point x="404" y="0"/>
			<point x="423" y="0" type="curve" smooth="yes"/>
			<point x="491" y="0" type="line"/>
		</contour>
		<contour>
			<point x="246" y="7" type="curve" smooth="yes"/>
			<point x="138" y="7"/>
			<point x="77" y="92"/>
			<point x="77" y="229" type="curve" smooth="yes"/>
			<point x="77" y="277" type="line" smooth="yes"/>
			<point x="77" y="414"/>
			<point x="138" y="499"/>
			<point x="246" y="499" type="curve" smooth="yes"/>
			<point x="324" y="499"/>
			<point x="395" y="444"/>
			<point x="395" y="363" type="curve" smooth="yes"/>
			<point x="395" y="143" type="line" smooth="yes"/>
			<point x="395" y="62"/>
			<point x="324" y="7"/>
		</contour>
	</outline>
</glyph>
<glyph name="breve.cyrl" format="2">
	<advance width="600"/>
	<anchor x="270" y="540" name="_top"/>
	<outline>
		<contour>
			<point x="270" y="606" type="curve" smooth="yes" name="hr00"/>
			<point x="320" y="606"/>
			<point x="347" y="627"/>
			<point x="367" y="696" type="curve" smooth="yes"/>
			<point x="375" y="723" type="line"/>
			<point x="359" y="730" type="line"/>
			<point x="338" y="666" type="line"/>
			<point x="319" y="636"/>
			<point x="300" y="625"/>
			<point x="270" y="625" type="curve" smooth="yes"/>
			<point x="241" y="625"/>
			<point x="222" y="635"/>
			<point x="204" y="663" type="curve"/>
			<point x="181" y="730" type="line"/>
			<point x="165" y="723" type="line"/>
			<point x="173" y="696" type="line" smooth="yes"/>
			<point x="193" y="627"/>
			<point x="220" y="606"/>
		</contour>
	</outline>
</glyph>
<glyph name="breve.cyrl_case" format="2">
	<advance width="600"/>
	<anchor x="300" y="720" name="_top"/>
	<outline>
		<contour>
			<point x="300" y="786" type="curve" smooth="yes" name="hr00"/>
			<point x="350" y="786"/>
			<point x="377" y="807"/>
			<point x="397" y="876" type="curve" smooth="yes"/>
			<point x="405" y="903" type="line"/>
			<point x="389" y="910" type="line"/>
			<point x="368" y="846" type="line"/>
			<point x="349" y="816"/>
			<point x="330" y="805"/>
			<point x="300" y="805" type="curve" smooth="yes"/>
			<point x="271" y="805"/>
			<point x="252" y="815"/>
			<point x="234" y="843" type="curve"/>
			<point x="211" y="910" type="line"/>
			<point x="195" y="903" type="line"/>
			<point x="203" y="876" type="line" smooth="yes"/>
			<point x="223" y="807"/>
			<point x="250" y="786"/>
		</contour>
	</outline>
</glyph>
<glyph name="grave.case" format="2">
	<advance width="540"/>
	<anchor x="270" y="698" name="_top"/>
	<outline>
		<contour>
			<point x="285" y="767" type="line" name="hr00"/>
			<point x="300" y="777" type="line"/>
			<point x="201" y="931" type="line"/>
			<point x="182" y="919" type="line"/>
		</contour>
	</outline>
</glyph>
<glyph name="macron.case" format="2">
	<advance width="540"/>
	<anchor x="270" y="698" name="_top"/>
	<outline>
		<contour>
			<point x="157" y="838" type="line" name="hr00"/>
			<point x="383" y="838" type="line"/>
			<point x="383" y="856" type="line"/>
			<point x="157" y="856" type="line"/>
		</contour>
	</outline>
</glyph>
<glyph name="uni03BC" format="2">
	<advance width="519"/>
	<outline>
		<contour>
			<point x="115" y="-200" type="line"/>
			<point x="115" y="-44" type="line"/>
			<point x="110" y="79" type="line"/>
			<point x="113" y="79" type="line"/>
			<point x="136" y="19"/>
			<point x="183" y="-12"/>
			<point x="251" y="-12" type="curve" smooth="yes"/>
			<point x="332" y="-12"/>
			<point x="376" y="31"/>
			<point x="392" y="76" type="curve"/>
			<point x="408" y="76" type="line"/>
			<point x="395" y="93" type="line"/>
			<point x="395" y="29" type="line" smooth="yes"/>
			<point x="395" y="9"/>
			<point x="404" y="0"/>
			<point x="423" y="0" type="curve" smooth="yes"/>
			<point x="492" y="0" type="line"/>
			<point x="492" y="19" type="line"/>
			<point x="416" y="19" type="line"/>
			<point x="416" y="506" type="line"/>
			<point x="395" y="506" type="line"/>
			<point x="395" y="144" type="line" smooth="yes"/>
			<point x="395" y="52"/>
			<point x="327" y="7"/>
			<point x="253" y="7" type="curve" smooth="yes"/>
			<point x="165" y="7"/>
			<point x="115" y="62"/>
			<point x="115" y="185" type="curve" smooth="yes"/>
			<point x="115" y="506" type="line"/>
			<point x="94" y="506" type="line"/>
			<point x="94" y="-200" type="line"/>
		</contour>
	</outline>
</glyph>
<glyph name="uni040A" format="2">
	<advance width="930"/>
	<outline>
		<contour>
			<point x="97" y="0" type="line"/>
			<point x="119" y="0" type="line"/>
			<point x="119" y="358" type="line"/>
			<point x="483" y="358" type="line"/>
			<point x="483" y="0" type="line"/>
			<point x="720" y="0" type="line" smooth="yes"/>
			<point x="822" y="0"/>
			<point x="877" y="74"/>
			<point x="877" y="189" type="curve" smooth="yes"/>
			<point x="877" y="304"/>
			<point x="822" y="378"/>
			<point x="720" y="378" type="curve" smooth="yes"/>
			<point x="505" y="378" type="line"/>
			<point x="505" y="698" type="line"/>
			<point x="483" y="698" type="line"/>
			<point x="483" y="378" type="line"/>
			<point x="119" y="378" type="line"/>
			<point x="119" y="698" type="line"/>
			<point x="97" y="698" type="line"/>
		</contour>
		<contour>
			<point x="505" y="20" type="line"/>
			<point x="505" y="358" type="line"/>
			<point x="720" y="358" type="line" smooth="yes"/>
			<point x="811" y="358"/>
			<point x="853" y="287"/>
			<point x="853" y="210" type="curve"/>
			<point x="853" y="168" type="line" smooth="yes"/>
			<point x="853" y="91"/>
			<point x="811" y="20"/>
			<point x="720" y="20" type="curve" smooth="yes"/>
		</contour>
	</outline>
</glyph>
<glyph name="uni040B" format="2">
	<advance width="704"/>
	<outline>
		<contour>
			<point x="241" y="0" type="line"/>
			<point x="263" y="0" type="line"/>
			<point x="263" y="372" type="line"/>
			<point x="304" y="390"/>
			<point x="359" y="401"/>
			<point x="429" y="401" type="curve" smooth="yes"/>
			<point x="554" y="401"/>
			<point x="621" y="339"/>
			<point x="621" y="191" type="curve" smooth="yes"/>
			<point x="621" y="0" type="line"/>
			<point x="643" y="0" type="line"/>
			<point x="643" y="191" type="line" smooth="yes"/>
			<point x="643" y="347"/>
			<point x="575" y="421"/>
			<point x="431" y="421" type="curve" smooth="yes"/>
			<point x="362" y="421"/>
			<point x="307" y="410"/>
			<point x="267" y="393" type="curve"/>
			<point x="263" y="393" type="line"/>
			<point x="263" y="678" type="line"/>
			<point x="488" y="678" type="line"/>
			<point x="488" y="698" type="line"/>
			<point x="15" y="698" type="line"/>
			<point x="15" y="678" type="line"/>
			<point x="241" y="678" type="line"/>
		</contour>
	</outline>
</glyph>
<glyph name="uni040F" format="2">
	<advance width="611"/>
	<outline>
		<contour>
			<point x="295" y="-150" type="line"/>
			<point x="317" y="-150" type="line"/>
			<point x="317" y="0" type="line"/>
			<point x="514" y="0" type="line"/>
			<point x="514" y="698" type="line"/>
			<point x="492" y="698" type="line"/>
			<point x="492" y="20" type="line"/>
			<point x="119" y="20" type="line"/>
			<point x="119" y="698" type="line"/>
			<point x="97" y="698" type="line"/>
			<point x="97" y="0" type="line"/>
			<point x="295" y="0" type="line"/>
		</contour>
	</outline>
</glyph>
<glyph name="uni041B" format="2">
	<advance width="577"/>
	<outline>
		<contour>
			<point x="7" y="0" type="line"/>
			<point x="44" y="0" type="line" smooth="yes"/>
			<point x="63" y="0"/>
			<point x="75" y="4"/>
			<point x="90" y="20" type="curve" smooth="yes"/>
			<point x="144" y="80"/>
			<point x="184" y="241"/>
			<point x="184" y="513" type="curve" smooth="yes"/>
			<point x="184" y="678" type="line"/>
			<point x="458" y="678" type="line"/>
			<point x="458" y="0" type="line"/>
			<point x="480" y="0" type="line"/>
			<point x="480" y="698" type="line"/>
			<point x="162" y="698" type="line"/>
			<point x="162" y="513" type="line" smooth="yes"/>
			<point x="162" y="230"/>
			<point x="120" y="80"/>
			<point x="64" y="20" type="curve"/>
			<point x="7" y="20" type="line"/>
		</contour>
	</outline>
</glyph>
<glyph name="uni041F" format="2">
	<advance width="611"/>
	<outline>
		<contour>
			<point x="97" y="0" type="line"/>
			<point x="119" y="0" type="line"/>
			<point x="119" y="678" type="line"/>
			<point x="492" y="678" type="line"/>
			<point x="492" y="0" type="line"/>
			<point x="514" y="0" type="line"/>
			<point x="514" y="698" type="line"/>
			<point x="97" y="698" type="line"/>
		</contour>
	</outline>
</glyph>
<glyph name="uni042A" format="2">
	<advance width="653"/>
	<outline>
		<contour>
			<point x="200" y="0" type="line"/>
			<point x="443" y="0" type="line" smooth="yes"/>
			<point x="546" y="0"/>
			<point x="600" y="79"/>
			<point x="600" y="199" type="curve" smooth="yes"/>
			<point x="600" y="319"/>
			<point x="546" y="398"/>
			<point x="443" y="398" type="curve" smooth="yes"/>
			<point x="222" y="398" type="line"/>
			<point x="222" y="698" type="line"/>
			<point x="15" y="698" type="line"/>
			<point x="15" y="678" type="line"/>
			<point x="200" y="678" type="line"/>
		</contour>
		<contour>
			<point x="222" y="20" type="line"/>
			<point x="222" y="378" type="line"/>
			<point x="443" y="378" type="line" smooth="yes"/>
			<point x="534" y="378"/>
			<point x="576" y="302"/>
			<point x="576" y="220" type="curve" smooth="yes"/>
			<point x="576" y="178" type="line" smooth="yes"/>
			<point x="576" y="96"/>
			<point x="534" y="20"/>
			<point x="443" y="20" type="curve" smooth="yes"/>
		</contour>
	</outline>
</glyph>
<glyph name="uni042B" format="2">
	<advance width="742"/>
	<anchor x="371" y="698" name="top"/>
	<outline>
		<contour>
			<point x="97" y="0" type="line"/>
			<point x="330" y="0" type="line" smooth="yes"/>
			<point x="433" y="0"/>
			<point x="488" y="78"/>
			<point x="488" y="199" type="curve" smooth="yes"/>
			<point x="488" y="320"/>
			<point x="433" y="398"/>
			<point x="330" y="398" type="curve" smooth="yes"/>
			<point x="119" y="398" type="line"/>
			<point x="119" y="698" type="line"/>
			<point x="97" y="698" type="line"/>
		</contour>
		<contour>
			<point x="119" y="20" type="line"/>
			<point x="119" y="378" type="line"/>
			<point x="330" y="378" type="line" smooth="yes"/>
			<point x="422" y="378"/>
			<point x="464" y="301"/>
			<point x="464" y="220" type="curve" smooth="yes"/>
			<point x="464" y="178" type="line" smooth="yes"/>
			<point x="464" y="97"/>
			<point x="422" y="20"/>
			<point x="330" y="20" type="curve" smooth="yes"/>
		</contour>
		<contour>
			<point x="623" y="0" type="line"/>
			<point x="645" y="0" type="line"/>
			<point x="645" y="698" type="line"/>
			<point x="623" y="698" type="line"/>
		</contour>
	</outline>
</glyph>
<glyph name="uni042C" format="2">
	<advance width="550"/>
	<outline>
		<contour>
			<point x="97" y="0" type="line"/>
			<point x="339" y="0" type="line" smooth="yes"/>
			<point x="442" y="0"/>
			<point x="497" y="78"/>
			<point x="497" y="199" type="curve" smooth="yes"/>
			<point x="497" y="320"/>
			<point x="442" y="398"/>
			<point x="339" y="398" type="curve" smooth="yes"/>
			<point x="119" y="398" type="line"/>
			<point x="119" y="698" type="line"/>
			<point x="97" y="698" type="line"/>
		</contour>
		<contour>
			<point x="119" y="20" type="line"/>
			<point x="119" y="378" type="line"/>
			<point x="339" y="378" type="line" smooth="yes"/>
			<point x="431" y="378"/>
			<point x="473" y="301"/>
			<point x="473" y="220" type="curve" smooth="yes"/>
			<point x="473" y="178" type="line" smooth="yes"/>
			<point x="473" y="97"/>
			<point x="431" y="20"/>
			<point x="339" y="20" type="curve" smooth="yes"/>
		</contour>
	</outline>
</glyph>
<glyph name="uni042D" format="2">
	<advance width="550"/>
	<outline>
		<contour>
			<point x="153" y="344" type="line"/>
			<point x="476" y="344" type="line"/>
			<point x="463" y="350" type="line"/>
			<point x="463" y="328" type="line" smooth="yes"/>
			<point x="463" y="114"/>
			<point x="384" y="8"/>
			<point x="253" y="8" type="curve" smooth="yes"/>
			<point x="165" y="8"/>
			<point x="102" y="61"/>
			<point x="72" y="148" type="curve"/>
			<point x="53" y="140" type="line"/>
			<point x="86" y="49"/>
			<point x="156" y="-12"/>
			<point x="253" y="-12" type="curve" smooth="yes"/>
			<point x="402" y="-12"/>
			<point x="487" y="109"/>
			<point x="487" y="349" type="curve" smooth="yes"/>
			<point x="487" y="589"/>
			<point x="402" y="710"/>
			<point x="253" y="710" type="curve" smooth="yes"/>
			<point x="161" y="710"/>
			<point x="92" y="652"/>
			<point x="58" y="567" type="curve"/>
			<point x="76" y="558" type="line"/>
			<point x="110" y="644"/>
			<point x="175" y="690"/>
			<point x="253" y="690" type="curve" smooth="yes"/>
			<point x="384" y="690"/>
			<point x="463" y="584"/>
			<point x="463" y="370" type="curve" smooth="yes"/>
			<point x="463" y="357" type="line"/>
			<point x="475" y="364" type="line"/>
			<point x="153" y="364" type="line"/>
		</contour>
	</outline>
</glyph>
<glyph name="uni042E" format="2">
	<advance width="817"/>
	<outline>
		<contour>
			<point x="514" y="-12" type="curve" smooth="yes"/>
			<point x="667" y="-12"/>
			<point x="754" y="109"/>
			<point x="754" y="349" type="curve" smooth="yes"/>
			<point x="754" y="589"/>
			<point x="667" y="710"/>
			<point x="514" y="710" type="curve" smooth="yes"/>
			<point x="365" y="710"/>
			<point x="278" y="594"/>
			<point x="274" y="364" type="curve"/>
			<point x="119" y="364" type="line"/>
			<point x="119" y="698" type="line"/>
			<point x="97" y="698" type="line"/>
			<point x="97" y="0" type="line"/>
			<point x="119" y="0" type="line"/>
			<point x="119" y="344" type="line"/>
			<point x="274" y="344" type="line"/>
			<point x="274" y="109"/>
			<point x="361" y="-12"/>
		</contour>
		<contour>
			<point x="514" y="8" type="curve" smooth="yes"/>
			<point x="380" y="8"/>
			<point x="298" y="118"/>
			<point x="298" y="328" type="curve" smooth="yes"/>
			<point x="298" y="370" type="line" smooth="yes"/>
			<point x="298" y="580"/>
			<point x="380" y="690"/>
			<point x="514" y="690" type="curve" smooth="yes"/>
			<point x="648" y="690"/>
			<point x="730" y="581"/>
			<point x="730" y="370" type="curve" smooth="yes"/>
			<point x="730" y="328" type="line" smooth="yes"/>
			<point x="730" y="117"/>
			<point x="648" y="8"/>
		</contour>
	</outline>
</glyph>
<glyph name="uni042F" format="2">
	<advance width="568"/>
	<outline>
		<contour>
			<point x="32" y="0" type="line"/>
			<point x="77" y="0" type="line" smooth="yes"/>
			<point x="91" y="0"/>
			<point x="102" y="4"/>
			<point x="108" y="17" type="curve" smooth="yes"/>
			<point x="251" y="322" type="line"/>
			<point x="449" y="322" type="line"/>
			<point x="449" y="0" type="line"/>
			<point x="471" y="0" type="line"/>
			<point x="471" y="698" type="line"/>
			<point x="229" y="698" type="line" smooth="yes"/>
			<point x="127" y="698"/>
			<point x="72" y="624"/>
			<point x="72" y="510" type="curve" smooth="yes"/>
			<point x="72" y="396"/>
			<point x="127" y="322"/>
			<point x="229" y="322" type="curve" smooth="yes"/>
			<point x="246" y="322" type="line"/>
			<point x="237" y="327" type="line"/>
			<point x="237" y="317" type="line"/>
			<point x="227" y="317"/>
			<point x="220" y="310"/>
			<point x="210" y="290" type="curve" smooth="yes"/>
			<point x="85" y="20" type="line"/>
			<point x="32" y="20" type="line"/>
		</contour>
		<contour>
			<point x="229" y="342" type="line" smooth="yes"/>
			<point x="138" y="342"/>
			<point x="96" y="413"/>
			<point x="96" y="489" type="curve" smooth="yes"/>
			<point x="96" y="531" type="line" smooth="yes"/>
			<point x="96" y="607"/>
			<point x="138" y="678"/>
			<point x="229" y="678" type="curve" smooth="yes"/>
			<point x="449" y="678" type="line"/>
			<point x="449" y="342" type="line"/>
		</contour>
	</outline>
</glyph>
<glyph name="uni043B" format="2">
	<advance width="486"/>
	<outline>
		<contour>
			<point x="4" y="0" type="line"/>
			<point x="42" y="0" type="line" smooth="yes"/>
			<point x="55" y="0"/>
			<point x="66" y="3"/>
			<point x="75" y="13" type="curve" smooth="yes"/>
			<point x="115" y="57"/>
			<point x="153" y="164"/>
			<point x="153" y="355" type="curve" smooth="yes"/>
			<point x="153" y="487" type="line"/>
			<point x="371" y="487" type="line"/>
			<point x="371" y="0" type="line"/>
			<point x="392" y="0" type="line"/>
			<point x="392" y="506" type="line"/>
			<point x="132" y="506" type="line"/>
			<point x="132" y="355" type="line" smooth="yes"/>
			<point x="132" y="162"/>
			<point x="95" y="63"/>
			<point x="56" y="19" type="curve"/>
			<point x="4" y="19" type="line"/>
		</contour>
	</outline>
</glyph>
<glyph name="uni043C" format="2">
	<advance width="615"/>
	<outline>
		<contour>
			<point x="94" y="0" type="line"/>
			<point x="115" y="0" type="line"/>
			<point x="115" y="419" type="line"/>
			<point x="115" y="480" type="line"/>
			<point x="119" y="480" type="line"/>
			<point x="152" y="420" type="line"/>
			<point x="307" y="138" type="line"/>
			<point x="462" y="420" type="line"/>
			<point x="495" y="480" type="line"/>
			<point x="500" y="480" type="line"/>
			<point x="500" y="418" type="line"/>
			<point x="500" y="0" type="line"/>
			<point x="521" y="0" type="line"/>
			<point x="521" y="506" type="line"/>
			<point x="488" y="506" type="line"/>
			<point x="309" y="177" type="line"/>
			<point x="306" y="177" type="line"/>
			<point x="127" y="506" type="line"/>
			<point x="94" y="506" type="line"/>
		</contour>
	</outline>
</glyph>
<glyph name="uni043D" format="2">
	<advance width="519"/>
	<outline>
		<contour>
			<point x="94" y="0" type="line"/>
			<point x="115" y="0" type="line"/>
			<point x="115" y="256" type="line"/>
			<point x="404" y="256" type="line"/>
			<point x="404" y="0" type="line"/>
			<point x="425" y="0" type="line"/>
			<point x="425" y="506" type="line"/>
			<point x="404" y="506" type="line"/>
			<point x="404" y="275" type="line"/>
			<point x="115" y="275" type="line"/>
			<point x="115" y="506" type="line"/>
			<point x="94" y="506" type="line"/>
		</contour>
	</outline>
</glyph>
<glyph name="uni043F" format="2">
	<advance width="510"/>
	<anchor x="255" y="0" name="bottom"/>
	<anchor x="255" y="506" name="top"/>
	<outline>
		<contour>
			<point x="94" y="0" type="line"/>
			<point x="115" y="0" type="line"/>
			<point x="115" y="487" type="line"/>
			<point x="395" y="487" type="line"/>
			<point x="395" y="0" type="line"/>
			<point x="416" y="0" type="line"/>
			<point x="416" y="506" type="line"/>
			<point x="94" y="506" type="line"/>
		</contour>
	</outline>
</glyph>
<glyph name="uni044A" format="2">
	<advance width="529"/>
	<outline>
		<contour>
			<point x="165" y="0" type="line"/>
			<point x="337" y="0" type="line" smooth="yes"/>
			<point x="429" y="0"/>
			<point x="478" y="59"/>
			<point x="478" y="147" type="curve" smooth="yes"/>
			<point x="478" y="235"/>
			<point x="428" y="293"/>
			<point x="337" y="293" type="curve" smooth="yes"/>
			<point x="186" y="293" type="line"/>
			<point x="186" y="506" type="line"/>
			<point x="31" y="506" type="line"/>
			<point x="31" y="487" type="line"/>
			<point x="165" y="487" type="line"/>
		</contour>
		<contour>
			<point x="186" y="19" type="line"/>
			<point x="186" y="274" type="line"/>
			<point x="337" y="274" type="line" smooth="yes"/>
			<point x="417" y="274"/>
			<point x="455" y="220"/>
			<point x="455" y="160" type="curve" smooth="yes"/>
			<point x="455" y="133" type="line" smooth="yes"/>
			<point x="455" y="73"/>
			<point x="417" y="19"/>
			<point x="337" y="19" type="curve" smooth="yes"/>
		</contour>
	</outline>
</glyph>
<glyph name="uni044B" format="2">
	<advance width="607"/>
	<anchor x="304" y="540" name="top"/>
	<outline>
		<contour>
			<point x="94" y="0" type="line"/>
			<point x="250" y="0" type="line" smooth="yes"/>
			<point x="342" y="0"/>
			<point x="391" y="58"/>
			<point x="391" y="147" type="curve" smooth="yes"/>
			<point x="391" y="235"/>
			<point x="342" y="293"/>
			<point x="250" y="293" type="curve" smooth="yes"/>
			<point x="115" y="293" type="line"/>
			<point x="115" y="506" type="line"/>
			<point x="94" y="506" type="line"/>
		</contour>
		<contour>
			<point x="115" y="19" type="line"/>
			<point x="115" y="274" type="line"/>
			<point x="250" y="274" type="line" smooth="yes"/>
			<point x="330" y="274"/>
			<point x="368" y="220"/>
			<point x="368" y="160" type="curve" smooth="yes"/>
			<point x="368" y="133" type="line" smooth="yes"/>
			<point x="368" y="73"/>
			<point x="330" y="19"/>
			<point x="250" y="19" type="curve" smooth="yes"/>
		</contour>
		<contour>
			<point x="492" y="0" type="line"/>
			<point x="513" y="0" type="line"/>
			<point x="513" y="506" type="line"/>
			<point x="492" y="506" type="line"/>
		</contour>
	</outline>
</glyph>
<glyph name="uni044D" format="2">
	<advance width="448"/>
	<outline>
		<contour>
			<point x="133" y="246" type="line"/>
			<point x="371" y="246" type="line"/>
			<point x="371" y="229" type="line" smooth="yes"/>
			<point x="371" y="94"/>
			<point x="312" y="7"/>
			<point x="204" y="7" type="curve" smooth="yes"/>
			<point x="134" y="7"/>
			<point x="92" y="40"/>
			<point x="63" y="95" type="curve"/>
			<point x="47" y="84" type="line"/>
			<point x="77" y="27"/>
			<point x="124" y="-12"/>
			<point x="204" y="-12" type="curve" smooth="yes"/>
			<point x="324" y="-12"/>
			<point x="394" y="79"/>
			<point x="394" y="253" type="curve" smooth="yes"/>
			<point x="394" y="427"/>
			<point x="324" y="518"/>
			<point x="204" y="518" type="curve" smooth="yes"/>
			<point x="131" y="518"/>
			<point x="83" y="478"/>
			<point x="55" y="418" type="curve"/>
			<point x="72" y="409" type="line"/>
			<point x="101" y="467"/>
			<point x="140" y="499"/>
			<point x="204" y="499" type="curve" smooth="yes"/>
			<point x="312" y="499"/>
			<point x="371" y="412"/>
			<point x="371" y="277" type="curve" smooth="yes"/>
			<point x="371" y="265" type="line"/>
			<point x="133" y="265" type="line"/>
		</contour>
	</outline>
</glyph>
<glyph name="uni044E" format="2">
	<advance width="663"/>
	<outline>
		<contour>
			<point x="425" y="-12" type="curve" smooth="yes"/>
			<point x="540" y="-12"/>
			<point x="609" y="80"/>
			<point x="609" y="253" type="curve" smooth="yes"/>
			<point x="609" y="426"/>
			<point x="540" y="518"/>
			<point x="425" y="518" type="curve" smooth="yes"/>
			<point x="315" y="518"/>
			<point x="247" y="434"/>
			<point x="240" y="275" type="curve"/>
			<point x="115" y="275" type="line"/>
			<point x="115" y="506" type="line"/>
			<point x="94" y="506" type="line"/>
			<point x="94" y="0" type="line"/>
			<point x="115" y="0" type="line"/>
			<point x="115" y="256" type="line"/>
			<point x="240" y="256" type="line"/>
			<point x="241" y="74"/>
			<point x="313" y="-12"/>
		</contour>
		<contour>
			<point x="425" y="7" type="curve" smooth="yes"/>
			<point x="321" y="7"/>
			<point x="263" y="96"/>
			<point x="263" y="229" type="curve" smooth="yes"/>
			<point x="263" y="277" type="line" smooth="yes"/>
			<point x="263" y="410"/>
			<point x="321" y="499"/>
			<point x="425" y="499" type="curve" smooth="yes"/>
			<point x="528" y="499"/>
			<point x="586" y="410"/>
			<point x="586" y="277" type="curve" smooth="yes"/>
			<point x="586" y="229" type="line" smooth="yes"/>
			<point x="586" y="96"/>
			<point x="528" y="7"/>
		</contour>
	</outline>
</glyph>
<glyph name="uni044F" format="2">
	<advance width="467"/>
	<outline>
		<contour>
			<point x="34" y="0" type="line"/>
			<point x="83" y="0" type="line" smooth="yes"/>
			<point x="93" y="0"/>
			<point x="101" y="3"/>
			<point x="107" y="16" type="curve" smooth="yes"/>
			<point x="200" y="213" type="line"/>
			<point x="352" y="213" type="line"/>
			<point x="352" y="0" type="line"/>
			<point x="373" y="0" type="line"/>
			<point x="373" y="506" type="line"/>
			<point x="200" y="506" type="line" smooth="yes"/>
			<point x="109" y="506"/>
			<point x="60" y="448"/>
			<point x="60" y="359" type="curve" smooth="yes"/>
			<point x="60" y="275"/>
			<point x="104" y="220"/>
			<point x="186" y="216" type="curve"/>
			<point x="186" y="210" type="line"/>
			<point x="178" y="207"/>
			<point x="171" y="202"/>
			<point x="163" y="186" type="curve" smooth="yes"/>
			<point x="85" y="19" type="line"/>
			<point x="34" y="19" type="line"/>
		</contour>
		<contour>
			<point x="201" y="232" type="line" smooth="yes"/>
			<point x="120" y="232"/>
			<point x="83" y="286"/>
			<point x="83" y="346" type="curve" smooth="yes"/>
			<point x="83" y="373" type="line" smooth="yes"/>
			<point x="83" y="433"/>
			<point x="120" y="487"/>
			<point x="201" y="487" type="curve" smooth="yes"/>
			<point x="352" y="487" type="line"/>
			<point x="352" y="232" type="line"/>
		</contour>
	</outline>
</glyph>
<glyph name="uni045A" format="2">
	<advance width="726"/>
	<outline>
		<contour>
			<point x="94" y="0" type="line"/>
			<point x="115" y="0" type="line"/>
			<point x="115" y="265" type="line"/>
			<point x="378" y="265" type="line"/>
			<point x="378" y="0" type="line"/>
			<point x="534" y="0" type="line"/>
			<point x="626" y="0"/>
			<point x="675" y="54"/>
			<point x="675" y="142" type="curve" smooth="yes"/>
			<point x="675" y="230"/>
			<point x="626" y="284"/>
			<point x="534" y="284" type="curve" smooth="yes"/>
			<point x="399" y="284" type="line"/>
			<point x="399" y="506" type="line"/>
			<point x="378" y="506" type="line"/>
			<point x="378" y="284" type="line"/>
			<point x="115" y="284" type="line"/>
			<point x="115" y="506" type="line"/>
			<point x="94" y="506" type="line"/>
		</contour>
		<contour>
			<point x="399" y="19" type="line"/>
			<point x="399" y="265" type="line"/>
			<point x="534" y="265" type="line" smooth="yes"/>
			<point x="614" y="265"/>
			<point x="652" y="216"/>
			<point x="652" y="156" type="curve" smooth="yes"/>
			<point x="652" y="128" type="line" smooth="yes"/>
			<point x="652" y="68"/>
			<point x="615" y="19"/>
			<point x="534" y="19" type="curve"/>
		</contour>
	</outline>
</glyph>
<glyph name="uni045F" format="2">
	<advance width="511"/>
	<outline>
		<contour>
			<point x="245" y="-140" type="line"/>
			<point x="266" y="-140" type="line"/>
			<point x="266" y="0" type="line"/>
			<point x="417" y="0" type="line"/>
			<point x="417" y="506" type="line"/>
			<point x="396" y="506" type="line"/>
			<point x="396" y="19" type="line"/>
			<point x="115" y="19" type="line"/>
			<point x="115" y="506" type="line"/>
			<point x="94" y="506" type="line"/>
			<point x="94" y="0" type="line"/>
			<point x="245" y="0" type="line"/>
		</contour>
	</outline>
</glyph>
<glyph name="uni049B" format="2">
	<advance width="476"/>
	<outline>
		<contour>
			<point x="420" y="-140" type="line"/>
			<point x="441" y="-140" type="line"/>
			<point x="441" y="19" type="line"/>
			<point x="380" y="19" type="line"/>
			<point x="266" y="226" type="line" smooth="yes"/>
			<point x="250" y="254"/>
			<point x="242" y="260"/>
			<point x="229" y="263" type="curve"/>
			<point x="229" y="268" type="line"/>
			<point x="241" y="270"/>
			<point x="248" y="276"/>
			<point x="263" y="301" type="curve" smooth="yes"/>
			<point x="374" y="487" type="line"/>
			<point x="425" y="487" type="line"/>
			<point x="425" y="506" type="line"/>
			<point x="380" y="506" type="line" smooth="yes"/>
			<point x="368" y="506"/>
			<point x="360" y="502"/>
			<point x="351" y="488" type="curve" smooth="yes"/>
			<point x="224" y="275" type="line"/>
			<point x="115" y="275" type="line"/>
			<point x="115" y="506" type="line"/>
			<point x="94" y="506" type="line"/>
			<point x="94" y="0" type="line"/>
			<point x="115" y="0" type="line"/>
			<point x="115" y="256" type="line"/>
			<point x="224" y="256" type="line"/>
			<point x="358" y="14" type="line" smooth="yes"/>
			<point x="364" y="4"/>
			<point x="370" y="0"/>
			<point x="383" y="0" type="curve" smooth="yes"/>
			<point x="432" y="0" type="line"/>
			<point x="420" y="11" type="line"/>
		</contour>
	</outline>
</glyph>
<glyph name="uni049C" format="2">
	<advance width="567"/>
	<outline>
		<contour>
			<point x="97" y="0" type="line"/>
			<point x="119" y="0" type="line"/>
			<point x="119" y="344" type="line"/>
			<point x="193" y="344" type="line"/>
			<point x="193" y="173" type="line"/>
			<point x="214" y="173" type="line"/>
			<point x="214" y="344" type="line"/>
			<point x="273" y="344" type="line"/>
			<point x="448" y="21" type="line" smooth="yes"/>
			<point x="457" y="5"/>
			<point x="465" y="0"/>
			<point x="481" y="0" type="curve" smooth="yes"/>
			<point x="527" y="0" type="line"/>
			<point x="527" y="20" type="line"/>
			<point x="473" y="20" type="line"/>
			<point x="309" y="325" type="line" smooth="yes"/>
			<point x="298" y="345"/>
			<point x="289" y="350"/>
			<point x="277" y="351" type="curve"/>
			<point x="277" y="356" type="line"/>
			<point x="290" y="356"/>
			<point x="299" y="369"/>
			<point x="309" y="387" type="curve" smooth="yes"/>
			<point x="462" y="678" type="line"/>
			<point x="515" y="678" type="line"/>
			<point x="515" y="698" type="line"/>
			<point x="471" y="698" type="line" smooth="yes"/>
			<point x="456" y="698"/>
			<point x="447" y="694"/>
			<point x="438" y="677" type="curve" smooth="yes"/>
			<point x="273" y="364" type="line"/>
			<point x="214" y="364" type="line"/>
			<point x="214" y="537" type="line"/>
			<point x="193" y="537" type="line"/>
			<point x="193" y="364" type="line"/>
			<point x="119" y="364" type="line"/>
			<point x="119" y="698" type="line"/>
			<point x="97" y="698" type="line"/>
		</contour>
	</outline>
</glyph>
<glyph name="uni049D" format="2">
	<advance width="488"/>
	<outline>
		<contour>
			<point x="94" y="0" type="line"/>
			<point x="115" y="0" type="line"/>
			<point x="115" y="256" type="line"/>
			<point x="174" y="256" type="line"/>
			<point x="174" y="125" type="line"/>
			<point x="194" y="125" type="line"/>
			<point x="194" y="256" type="line"/>
			<point x="243" y="256" type="line"/>
			<point x="376" y="14" type="line" smooth="yes"/>
			<point x="382" y="3"/>
			<point x="389" y="0"/>
			<point x="401" y="0" type="curve" smooth="yes"/>
			<point x="450" y="0" type="line"/>
			<point x="450" y="19" type="line"/>
			<point x="399" y="19" type="line"/>
			<point x="284" y="226" type="line" smooth="yes"/>
			<point x="271" y="250"/>
			<point x="261" y="260"/>
			<point x="248" y="263" type="curve"/>
			<point x="248" y="268" type="line"/>
			<point x="260" y="270"/>
			<point x="266" y="277"/>
			<point x="281" y="301" type="curve" smooth="yes"/>
			<point x="392" y="487" type="line"/>
			<point x="444" y="487" type="line"/>
			<point x="444" y="506" type="line"/>
			<point x="399" y="506" type="line" smooth="yes"/>
			<point x="385" y="506"/>
			<point x="378" y="501"/>
			<point x="370" y="488" type="curve" smooth="yes"/>
			<point x="243" y="275" type="line"/>
			<point x="194" y="275" type="line"/>
			<point x="194" y="405" type="line"/>
			<point x="174" y="405" type="line"/>
			<point x="174" y="275" type="line"/>
			<point x="115" y="275" type="line"/>
			<point x="115" y="506" type="line"/>
			<point x="94" y="506" type="line"/>
		</contour>
	</outline>
</glyph>
<glyph name="uni049E" format="2">
	<advance width="578"/>
	<outline>
		<contour>
			<point x="118" y="0" type="line"/>
			<point x="140" y="0" type="line"/>
			<point x="140" y="344" type="line"/>
			<point x="284" y="344" type="line"/>
			<point x="459" y="21" type="line" smooth="yes"/>
			<point x="469" y="3"/>
			<point x="480" y="0"/>
			<point x="492" y="0" type="curve" smooth="yes"/>
			<point x="538" y="0" type="line"/>
			<point x="538" y="20" type="line"/>
			<point x="485" y="20" type="line"/>
			<point x="320" y="325" type="line" smooth="yes"/>
			<point x="309" y="345"/>
			<point x="300" y="350"/>
			<point x="288" y="351" type="curve"/>
			<point x="288" y="356" type="line"/>
			<point x="301" y="356"/>
			<point x="310" y="369"/>
			<point x="320" y="387" type="curve" smooth="yes"/>
			<point x="473" y="678" type="line"/>
			<point x="527" y="678" type="line"/>
			<point x="527" y="698" type="line"/>
			<point x="483" y="698" type="line" smooth="yes"/>
			<point x="470" y="698"/>
			<point x="459" y="696"/>
			<point x="449" y="677" type="curve" smooth="yes"/>
			<point x="284" y="364" type="line"/>
			<point x="140" y="364" type="line"/>
			<point x="140" y="575" type="line"/>
			<point x="297" y="575" type="line"/>
			<point x="297" y="594" type="line"/>
			<point x="140" y="594" type="line"/>
			<point x="140" y="698" type="line"/>
			<point x="118" y="698" type="line"/>
			<point x="118" y="594" type="line"/>
			<point x="26" y="594" type="line"/>
			<point x="26" y="575" type="line"/>
			<point x="118" y="575" type="line"/>
		</contour>
	</outline>
</glyph>
<glyph name="uni049F" format="2">
	<advance width="469"/>
	<outline>
		<contour>
			<point x="96" y="0" type="line"/>
			<point x="117" y="0" type="line"/>
			<point x="117" y="256" type="line"/>
			<point x="226" y="256" type="line"/>
			<point x="360" y="14" type="line" smooth="yes"/>
			<point x="366" y="3"/>
			<point x="373" y="0"/>
			<point x="385" y="0" type="curve" smooth="yes"/>
			<point x="434" y="0" type="line"/>
			<point x="434" y="19" type="line"/>
			<point x="383" y="19" type="line"/>
			<point x="268" y="226" type="line" smooth="yes"/>
			<point x="252" y="254"/>
			<point x="244" y="260"/>
			<point x="231" y="263" type="curve"/>
			<point x="231" y="268" type="line"/>
			<point x="244" y="270"/>
			<point x="250" y="276"/>
			<point x="265" y="301" type="curve" smooth="yes"/>
			<point x="376" y="487" type="line"/>
			<point x="428" y="487" type="line"/>
			<point x="428" y="506" type="line"/>
			<point x="383" y="506" type="line" smooth="yes"/>
			<point x="369" y="506"/>
			<point x="362" y="501"/>
			<point x="354" y="488" type="curve" smooth="yes"/>
			<point x="226" y="275" type="line"/>
			<point x="117" y="275" type="line"/>
			<point x="117" y="573" type="line"/>
			<point x="264" y="573" type="line"/>
			<point x="264" y="591" type="line"/>
			<point x="117" y="591" type="line"/>
			<point x="117" y="740" type="line"/>
			<point x="96" y="740" type="line"/>
			<point x="96" y="591" type="line"/>
			<point x="37" y="591" type="line"/>
			<point x="37" y="573" type="line"/>
			<point x="96" y="573" type="line"/>
		</contour>
	</outline>
</glyph>
<glyph name="uni04A0" format="2">
	<advance width="660"/>
	<outline>
		<contour>
			<point x="200" y="0" type="line"/>
			<point x="222" y="0" type="line"/>
			<point x="222" y="344" type="line"/>
			<point x="367" y="344" type="line"/>
			<point x="541" y="21" type="line" smooth="yes"/>
			<point x="550" y="4"/>
			<point x="561" y="0"/>
			<point x="575" y="0" type="curve" smooth="yes"/>
			<point x="620" y="0" type="line"/>
			<point x="620" y="20" type="line"/>
			<point x="567" y="20" type="line"/>
			<point x="403" y="325" type="line" smooth="yes"/>
			<point x="392" y="345"/>
			<point x="383" y="350"/>
			<point x="371" y="351" type="curve"/>
			<point x="371" y="356" type="line"/>
			<point x="383" y="356"/>
			<point x="393" y="369"/>
			<point x="403" y="387" type="curve" smooth="yes"/>
			<point x="556" y="678" type="line"/>
			<point x="609" y="678" type="line"/>
			<point x="609" y="698" type="line"/>
			<point x="565" y="698" type="line" smooth="yes"/>
			<point x="551" y="698"/>
			<point x="541" y="695"/>
			<point x="531" y="677" type="curve" smooth="yes"/>
			<point x="367" y="364" type="line"/>
			<point x="222" y="364" type="line"/>
			<point x="222" y="698" type="line"/>
			<point x="15" y="698" type="line"/>
			<point x="15" y="678" type="line"/>
			<point x="200" y="678" type="line"/>
		</contour>
	</outline>
</glyph>
<glyph name="uni04A1" format="2">
	<advance width="540"/>
	<outline>
		<contour>
			<point x="165" y="0" type="line"/>
			<point x="186" y="0" type="line"/>
			<point x="186" y="256" type="line"/>
			<point x="294" y="256" type="line"/>
			<point x="429" y="14" type="line" smooth="yes"/>
			<point x="435" y="3"/>
			<point x="441" y="0"/>
			<point x="453" y="0" type="curve" smooth="yes"/>
			<point x="502" y="0" type="line"/>
			<point x="502" y="19" type="line"/>
			<point x="451" y="19" type="line"/>
			<point x="336" y="226" type="line" smooth="yes"/>
			<point x="320" y="254"/>
			<point x="312" y="260"/>
			<point x="299" y="263" type="curve"/>
			<point x="299" y="268" type="line"/>
			<point x="311" y="270"/>
			<point x="318" y="276"/>
			<point x="333" y="301" type="curve" smooth="yes"/>
			<point x="444" y="487" type="line"/>
			<point x="496" y="487" type="line"/>
			<point x="496" y="506" type="line"/>
			<point x="451" y="506" type="line" smooth="yes"/>
			<point x="440" y="506"/>
			<point x="431" y="503"/>
			<point x="422" y="488" type="curve" smooth="yes"/>
			<point x="294" y="275" type="line"/>
			<point x="186" y="275" type="line"/>
			<point x="186" y="506" type="line"/>
			<point x="31" y="506" type="line"/>
			<point x="31" y="487" type="line"/>
			<point x="165" y="487" type="line"/>
		</contour>
	</outline>
</glyph>
<glyph name="uni04A2" format="2">
	<advance width="651"/>
	<outline>
		<contour>
			<point x="585" y="-150" type="line"/>
			<point x="607" y="-150" type="line"/>
			<point x="607" y="20" type="line"/>
			<point x="527" y="20" type="line"/>
			<point x="527" y="698" type="line"/>
			<point x="505" y="698" type="line"/>
			<point x="505" y="364" type="line"/>
			<point x="119" y="364" type="line"/>
			<point x="119" y="698" type="line"/>
			<point x="97" y="698" type="line"/>
			<point x="97" y="0" type="line"/>
			<point x="119" y="0" type="line"/>
			<point x="119" y="344" type="line"/>
			<point x="505" y="344" type="line"/>
			<point x="505" y="0" type="line"/>
			<point x="585" y="0" type="line"/>
		</contour>
	</outline>
</glyph>
<glyph name="uni04A4" format="2">
	<advance width="841"/>
	<outline>
		<contour>
			<point x="97" y="0" type="line"/>
			<point x="119" y="0" type="line"/>
			<point x="119" y="344" type="line"/>
			<point x="483" y="344" type="line"/>
			<point x="483" y="0" type="line"/>
			<point x="505" y="0" type="line"/>
			<point x="505" y="678" type="line"/>
			<point x="802" y="678" type="line"/>
			<point x="802" y="698" type="line"/>
			<point x="483" y="698" type="line"/>
			<point x="483" y="364" type="line"/>
			<point x="119" y="364" type="line"/>
			<point x="119" y="698" type="line"/>
			<point x="97" y="698" type="line"/>
		</contour>
	</outline>
</glyph>
<glyph name="uni04A5" format="2">
	<advance width="686"/>
	<outline>
		<contour>
			<point x="94" y="0" type="line"/>
			<point x="115" y="0" type="line"/>
			<point x="115" y="265" type="line"/>
			<point x="378" y="265" type="line"/>
			<point x="378" y="0" type="line"/>
			<point x="399" y="0" type="line"/>
			<point x="399" y="487" type="line"/>
			<point x="646" y="487" type="line"/>
			<point x="646" y="506" type="line"/>
			<point x="378" y="506" type="line"/>
			<point x="378" y="284" type="line"/>
			<point x="115" y="284" type="line"/>
			<point x="115" y="506" type="line"/>
			<point x="94" y="506" type="line"/>
		</contour>
	</outline>
</glyph>
<glyph name="uni04A6" format="2">
	<advance width="910"/>
	<outline>
		<contour>
			<point x="679" y="-164" type="line"/>
			<point x="735" y="-164" type="line" smooth="yes"/>
			<point x="803" y="-164"/>
			<point x="850" y="-111"/>
			<point x="850" y="42" type="curve" smooth="yes"/>
			<point x="850" y="156" type="line" smooth="yes"/>
			<point x="850" y="310"/>
			<point x="784" y="384"/>
			<point x="640" y="384" type="curve" smooth="yes"/>
			<point x="584" y="384"/>
			<point x="536" y="376"/>
			<point x="501" y="361" type="curve"/>
			<point x="496" y="361" type="line"/>
			<point x="496" y="698" type="line"/>
			<point x="97" y="698" type="line"/>
			<point x="97" y="0" type="line"/>
			<point x="119" y="0" type="line"/>
			<point x="119" y="678" type="line"/>
			<point x="474" y="678" type="line"/>
			<point x="474" y="0" type="line"/>
			<point x="496" y="0" type="line"/>
			<point x="496" y="339" type="line"/>
			<point x="530" y="354"/>
			<point x="583" y="364"/>
			<point x="637" y="364" type="curve" smooth="yes"/>
			<point x="762" y="364"/>
			<point x="828" y="302"/>
			<point x="828" y="156" type="curve" smooth="yes"/>
			<point x="828" y="42" type="line" smooth="yes"/>
			<point x="828" y="-78"/>
			<point x="798" y="-130"/>
			<point x="755" y="-144" type="curve"/>
			<point x="679" y="-144" type="line"/>
		</contour>
	</outline>
</glyph>
<glyph name="uni04A7" format="2">
	<advance width="740"/>
	<outline>
		<contour>
			<point x="546" y="-200" type="line"/>
			<point x="609" y="-200" type="line" smooth="yes"/>
			<point x="645" y="-200"/>
			<point x="682" y="-155"/>
			<point x="682" y="-39" type="curve" smooth="yes"/>
			<point x="682" y="115" type="line" smooth="yes"/>
			<point x="682" y="231"/>
			<point x="631" y="276"/>
			<point x="536" y="276" type="curve" smooth="yes"/>
			<point x="460" y="276"/>
			<point x="419" y="237"/>
			<point x="404" y="193" type="curve"/>
			<point x="398" y="193" type="line"/>
			<point x="398" y="506" type="line"/>
			<point x="94" y="506" type="line"/>
			<point x="94" y="0" type="line"/>
			<point x="115" y="0" type="line"/>
			<point x="115" y="487" type="line"/>
			<point x="377" y="487" type="line"/>
			<point x="377" y="0" type="line"/>
			<point x="398" y="0" type="line"/>
			<point x="398" y="125" type="line" smooth="yes"/>
			<point x="398" y="206"/>
			<point x="452" y="257"/>
			<point x="533" y="257" type="curve" smooth="yes"/>
			<point x="618" y="257"/>
			<point x="661" y="221"/>
			<point x="661" y="111" type="curve" smooth="yes"/>
			<point x="661" y="-35" type="line" smooth="yes"/>
			<point x="661" y="-110"/>
			<point x="648" y="-153"/>
			<point x="622" y="-181" type="curve"/>
			<point x="546" y="-181" type="line"/>
		</contour>
	</outline>
</glyph>
<glyph name="uni04A8" format="2">
	<advance width="772"/>
	<outline>
		<contour>
			<point x="723" y="-12" type="line"/>
			<point x="692" y="-12" type="line" smooth="yes"/>
			<point x="634" y="-12"/>
			<point x="583" y="1"/>
			<point x="534" y="31" type="curve"/>
			<point x="643" y="102"/>
			<point x="703" y="221"/>
			<point x="703" y="359" type="curve" smooth="yes"/>
			<point x="703" y="559"/>
			<point x="631" y="654"/>
			<point x="515" y="654" type="curve" smooth="yes"/>
			<point x="398" y="654"/>
			<point x="327" y="559"/>
			<point x="327" y="368" type="curve" smooth="yes"/>
			<point x="327" y="221"/>
			<point x="384" y="101"/>
			<point x="491" y="32" type="curve"/>
			<point x="459" y="16"/>
			<point x="419" y="8"/>
			<point x="376" y="8" type="curve" smooth="yes"/>
			<point x="215" y="8"/>
			<point x="87" y="128"/>
			<point x="87" y="333" type="curve" smooth="yes"/>
			<point x="87" y="375" type="line" smooth="yes"/>
			<point x="87" y="581"/>
			<point x="170" y="690"/>
			<point x="306" y="690" type="curve" smooth="yes"/>
			<point x="321" y="690"/>
			<point x="339" y="687"/>
			<point x="349" y="683" type="curve"/>
			<point x="352" y="703" type="line"/>
			<point x="341" y="707"/>
			<point x="322" y="710"/>
			<point x="306" y="710" type="curve" smooth="yes"/>
			<point x="150" y="710"/>
			<point x="63" y="588"/>
			<point x="63" y="355" type="curve" smooth="yes"/>
			<point x="63" y="119"/>
			<point x="196" y="-12"/>
			<point x="376" y="-12" type="curve" smooth="yes"/>
			<point x="418" y="-12"/>
			<point x="465" y="-4"/>
			<point x="512" y="19" type="curve"/>
			<point x="568" y="-18"/>
			<point x="627" y="-32"/>
			<point x="692" y="-32" type="curve" smooth="yes"/>
			<point x="723" y="-32" type="line"/>
		</contour>
		<contour>
			<point x="351" y="388" type="line"/>
			<point x="351" y="554"/>
			<point x="421" y="634"/>
			<point x="515" y="634" type="curve" smooth="yes"/>
			<point x="608" y="634"/>
			<point x="679" y="554"/>
			<point x="679" y="388" type="curve" smooth="yes"/>
			<point x="679" y="346" type="line" smooth="yes"/>
			<point x="679" y="228"/>
			<point x="620" y="109"/>
			<point x="514" y="42" type="curve"/>
			<point x="409" y="109"/>
			<point x="351" y="228"/>
			<point x="351" y="346" type="curve" smooth="yes"/>
		</contour>
	</outline>
</glyph>
<glyph name="uni04A9" format="2">
	<advance width="620"/>
	<outline>
		<contour>
			<point x="578" y="-12" type="line"/>
			<point x="555" y="-12" type="line" smooth="yes"/>
			<point x="505" y="-12"/>
			<point x="471" y="-3"/>
			<point x="428" y="21" type="curve"/>
			<point x="508" y="73"/>
			<point x="557" y="162"/>
			<point x="557" y="271" type="curve" smooth="yes"/>
			<point x="557" y="410"/>
			<point x="502" y="481"/>
			<point x="409" y="481" type="curve" smooth="yes"/>
			<point x="316" y="481"/>
			<point x="261" y="410"/>
			<point x="261" y="271" type="curve" smooth="yes"/>
			<point x="261" y="163"/>
			<point x="310" y="73"/>
			<point x="385" y="23" type="curve"/>
			<point x="363" y="13"/>
			<point x="327" y="7"/>
			<point x="299" y="7" type="curve" smooth="yes"/>
			<point x="170" y="7"/>
			<point x="77" y="99"/>
			<point x="77" y="233" type="curve" smooth="yes"/>
			<point x="77" y="281" type="line" smooth="yes"/>
			<point x="77" y="413"/>
			<point x="137" y="499"/>
			<point x="243" y="499" type="curve" smooth="yes"/>
			<point x="252" y="499"/>
			<point x="267" y="498"/>
			<point x="275" y="495" type="curve"/>
			<point x="277" y="514" type="line"/>
			<point x="268" y="517"/>
			<point x="255" y="518"/>
			<point x="243" y="518" type="curve" smooth="yes"/>
			<point x="124" y="518"/>
			<point x="54" y="427"/>
			<point x="54" y="257" type="curve" smooth="yes"/>
			<point x="54" y="84"/>
			<point x="158" y="-12"/>
			<point x="299" y="-12" type="curve" smooth="yes"/>
			<point x="335" y="-12"/>
			<point x="373" y="-4"/>
			<point x="406" y="10" type="curve"/>
			<point x="455" y="-19"/>
			<point x="497" y="-31"/>
			<point x="555" y="-31" type="curve" smooth="yes"/>
			<point x="578" y="-31" type="line"/>
		</contour>
		<contour>
			<point x="284" y="295" type="line" smooth="yes"/>
			<point x="284" y="392"/>
			<point x="326" y="462"/>
			<point x="409" y="462" type="curve" smooth="yes"/>
			<point x="492" y="462"/>
			<point x="534" y="392"/>
			<point x="534" y="295" type="curve" smooth="yes"/>
			<point x="534" y="247" type="line" smooth="yes"/>
			<point x="534" y="160"/>
			<point x="484" y="78"/>
			<point x="409" y="32" type="curve"/>
			<point x="334" y="78"/>
			<point x="284" y="161"/>
			<point x="284" y="247" type="curve" smooth="yes"/>
		</contour>
	</outline>
</glyph>
<glyph name="uni04AA" format="2">
	<advance width="550"/>
	<outline>
		<contour>
			<point x="286" y="-150" type="line"/>
			<point x="308" y="-150" type="line"/>
			<point x="308" y="-12" type="line"/>
			<point x="401" y="-8"/>
			<point x="466" y="55"/>
			<point x="497" y="140" type="curve"/>
			<point x="478" y="148" type="line"/>
			<point x="447" y="61"/>
			<point x="387" y="8"/>
			<point x="297" y="8" type="curve" smooth="yes"/>
			<point x="167" y="8"/>
			<point x="87" y="113"/>
			<point x="87" y="328" type="curve" smooth="yes"/>
			<point x="87" y="370" type="line" smooth="yes"/>
			<point x="87" y="585"/>
			<point x="167" y="690"/>
			<point x="297" y="690" type="curve" smooth="yes"/>
			<point x="378" y="690"/>
			<point x="441" y="640"/>
			<point x="473" y="558" type="curve"/>
			<point x="492" y="567" type="line"/>
			<point x="458" y="652"/>
			<point x="388" y="710"/>
			<point x="297" y="710" type="curve" smooth="yes"/>
			<point x="148" y="710"/>
			<point x="63" y="589"/>
			<point x="63" y="349" type="curve" smooth="yes"/>
			<point x="63" y="114"/>
			<point x="144" y="-7"/>
			<point x="286" y="-12" type="curve"/>
		</contour>
	</outline>
</glyph>
<glyph name="uni04AB" format="2">
	<advance width="439"/>
	<outline>
		<contour>
			<point x="234" y="-140" type="line"/>
			<point x="255" y="-140" type="line"/>
			<point x="255" y="-12" type="line"/>
			<point x="330" y="-9"/>
			<point x="374" y="32"/>
			<point x="401" y="84" type="curve"/>
			<point x="385" y="95" type="line"/>
			<point x="357" y="40"/>
			<point x="313" y="7"/>
			<point x="244" y="7" type="curve" smooth="yes"/>
			<point x="137" y="7"/>
			<point x="77" y="93"/>
			<point x="77" y="229" type="curve" smooth="yes"/>
			<point x="77" y="277" type="line" smooth="yes"/>
			<point x="77" y="413"/>
			<point x="137" y="499"/>
			<point x="244" y="499" type="curve" smooth="yes"/>
			<point x="308" y="499"/>
			<point x="347" y="467"/>
			<point x="375" y="409" type="curve"/>
			<point x="393" y="418" type="line"/>
			<point x="365" y="478"/>
			<point x="317" y="518"/>
			<point x="244" y="518" type="curve" smooth="yes"/>
			<point x="125" y="518"/>
			<point x="54" y="428"/>
			<point x="54" y="253" type="curve" smooth="yes"/>
			<point x="54" y="80"/>
			<point x="122" y="-7"/>
			<point x="234" y="-12" type="curve"/>
		</contour>
	</outline>
</glyph>
<glyph name="uni04AC" format="2">
	<advance width="503"/>
	<outline>
		<contour>
			<point x="488" y="678" type="line"/>
			<point x="488" y="698" type="line"/>
			<point x="15" y="698" type="line"/>
			<point x="15" y="678" type="line"/>
			<point x="241" y="678" type="line"/>
			<point x="241" y="0" type="line"/>
			<point x="321" y="0" type="line"/>
			<point x="321" y="-150" type="line"/>
			<point x="342" y="-150" type="line"/>
			<point x="342" y="20" type="line"/>
			<point x="263" y="20" type="line"/>
			<point x="263" y="678" type="line"/>
		</contour>
	</outline>
</glyph>
<glyph name="uni04AD" format="2">
	<advance width="431"/>
	<outline>
		<contour>
			<point x="205" y="0" type="line"/>
			<point x="273" y="0" type="line"/>
			<point x="273" y="-140" type="line"/>
			<point x="294" y="-140" type="line"/>
			<point x="294" y="19" type="line"/>
			<point x="226" y="19" type="line"/>
			<point x="226" y="487" type="line"/>
			<point x="400" y="487" type="line"/>
			<point x="400" y="506" type="line"/>
			<point x="31" y="506" type="line"/>
			<point x="31" y="487" type="line"/>
			<point x="205" y="487" type="line"/>
		</contour>
	</outline>
</glyph>
<glyph name="uni04B0" format="2">
	<advance width="494"/>
	<outline>
		<contour>
			<point x="236" y="0" type="line"/>
			<point x="258" y="0" type="line" name="hr00"/>
			<point x="258" y="274" type="line"/>
			<point x="420" y="274" type="line"/>
			<point x="420" y="294" type="line"/>
			<point x="258" y="294" type="line"/>
			<point x="475" y="698" type="line"/>
			<point x="451" y="698" type="line"/>
			<point x="250" y="324" type="line"/>
			<point x="244" y="324" type="line"/>
			<point x="44" y="698" type="line"/>
			<point x="19" y="698" type="line"/>
			<point x="236" y="294" type="line"/>
			<point x="74" y="294" type="line"/>
			<point x="74" y="274" type="line"/>
			<point x="236" y="274" type="line"/>
		</contour>
	</outline>
</glyph>
<glyph name="uni04B1" format="2">
	<advance width="408"/>
	<outline>
		<contour>
			<point x="193" y="-200" type="line"/>
			<point x="214" y="-200" type="line"/>
			<point x="214" y="-19" type="line"/>
			<point x="331" y="-19" type="line"/>
			<point x="331" y="0" type="line"/>
			<point x="214" y="0" type="line"/>
			<point x="386" y="506" type="line"/>
			<point x="365" y="506" type="line"/>
			<point x="234" y="113" type="line"/>
			<point x="205" y="24" type="line"/>
			<point x="202" y="24" type="line"/>
			<point x="174" y="113" type="line"/>
			<point x="44" y="506" type="line"/>
			<point x="22" y="506" type="line"/>
			<point x="193" y="0" type="line"/>
			<point x="76" y="0" type="line"/>
			<point x="76" y="-19" type="line"/>
			<point x="193" y="-19" type="line"/>
		</contour>
	</outline>
</glyph>
<glyph name="uni04B3" format="2">
	<advance width="441"/>
	<outline>
		<contour>
			<point x="420" y="-140" type="line"/>
			<point x="441" y="-140" type="line"/>
			<point x="441" y="19" type="line"/>
			<point x="380" y="19" type="line"/>
			<point x="225" y="255" type="line"/>
			<point x="390" y="506" type="line"/>
			<point x="366" y="506" type="line"/>
			<point x="213" y="271" type="line"/>
			<point x="211" y="271" type="line"/>
			<point x="59" y="506" type="line"/>
			<point x="35" y="506" type="line"/>
			<point x="199" y="255" type="line"/>
			<point x="30" y="0" type="line"/>
			<point x="54" y="0" type="line"/>
			<point x="211" y="239" type="line"/>
			<point x="213" y="239" type="line"/>
			<point x="370" y="0" type="line"/>
			<point x="420" y="0" type="line"/>
		</contour>
	</outline>
</glyph>
<glyph name="uni04B4" format="2">
	<advance width="790"/>
	<outline>
		<contour>
			<point x="724" y="-150" type="line"/>
			<point x="746" y="-150" type="line"/>
			<point x="746" y="20" type="line"/>
			<point x="666" y="20" type="line"/>
			<point x="666" y="698" type="line"/>
			<point x="644" y="698" type="line"/>
			<point x="644" y="20" type="line"/>
			<point x="262" y="20" type="line"/>
			<point x="262" y="678" type="line"/>
			<point x="488" y="678" type="line"/>
			<point x="488" y="698" type="line"/>
			<point x="15" y="698" type="line"/>
			<point x="15" y="678" type="line"/>
			<point x="240" y="678" type="line"/>
			<point x="240" y="0" type="line"/>
			<point x="724" y="0" type="line"/>
		</contour>
	</outline>
</glyph>
<glyph name="uni04B5" format="2">
	<advance width="644"/>
	<outline>
		<contour>
			<point x="583" y="-140" type="line"/>
			<point x="604" y="-140" type="line"/>
			<point x="604" y="19" type="line"/>
			<point x="536" y="19" type="line"/>
			<point x="536" y="506" type="line"/>
			<point x="515" y="506" type="line"/>
			<point x="515" y="19" type="line"/>
			<point x="226" y="19" type="line"/>
			<point x="226" y="487" type="line"/>
			<point x="399" y="487" type="line"/>
			<point x="399" y="506" type="line"/>
			<point x="31" y="506" type="line"/>
			<point x="31" y="487" type="line"/>
			<point x="205" y="487" type="line"/>
			<point x="205" y="0" type="line"/>
			<point x="583" y="0" type="line"/>
		</contour>
	</outline>
</glyph>
<glyph name="uni04B8" format="2">
	<advance width="560"/>
	<outline>
		<contour>
			<point x="441" y="0" type="line"/>
			<point x="463" y="0" type="line"/>
			<point x="463" y="698" type="line"/>
			<point x="441" y="698" type="line"/>
			<point x="441" y="326" type="line"/>
			<point x="400" y="308"/>
			<point x="346" y="297"/>
			<point x="277" y="297" type="curve"/>
			<point x="277" y="482" type="line"/>
			<point x="257" y="482" type="line"/>
			<point x="257" y="297" type="line"/>
			<point x="143" y="303"/>
			<point x="83" y="367"/>
			<point x="83" y="507" type="curve" smooth="yes"/>
			<point x="83" y="698" type="line"/>
			<point x="61" y="698" type="line"/>
			<point x="61" y="507" type="line" smooth="yes"/>
			<point x="61" y="357"/>
			<point x="124" y="282"/>
			<point x="257" y="277" type="curve"/>
			<point x="257" y="118" type="line"/>
			<point x="277" y="118" type="line"/>
			<point x="277" y="277" type="line"/>
			<point x="341" y="277"/>
			<point x="396" y="287"/>
			<point x="437" y="305" type="curve"/>
			<point x="441" y="305" type="line"/>
		</contour>
	</outline>
</glyph>
<glyph name="uni04B9" format="2">
	<advance width="470"/>
	<outline>
		<contour>
			<point x="355" y="0" type="line"/>
			<point x="376" y="0" type="line"/>
			<point x="376" y="506" type="line"/>
			<point x="355" y="506" type="line"/>
			<point x="355" y="346" type="line" smooth="yes"/>
			<point x="355" y="271"/>
			<point x="306" y="219"/>
			<point x="224" y="214" type="curve"/>
			<point x="224" y="373" type="line"/>
			<point x="204" y="373" type="line"/>
			<point x="204" y="214" type="line"/>
			<point x="123" y="216"/>
			<point x="75" y="257"/>
			<point x="75" y="360" type="curve" smooth="yes"/>
			<point x="75" y="506" type="line"/>
			<point x="54" y="506" type="line"/>
			<point x="54" y="356" type="line" smooth="yes"/>
			<point x="54" y="246"/>
			<point x="110" y="197"/>
			<point x="204" y="195" type="curve"/>
			<point x="204" y="93" type="line"/>
			<point x="224" y="93" type="line"/>
			<point x="224" y="195" type="line"/>
			<point x="295" y="199"/>
			<point x="335" y="236"/>
			<point x="348" y="278" type="curve"/>
			<point x="355" y="278" type="line"/>
		</contour>
	</outline>
</glyph>
<glyph name="uni04BA" format="2">
	<advance width="560"/>
	<outline>
		<contour>
			<point x="97" y="0" type="line"/>
			<point x="119" y="0" type="line"/>
			<point x="119" y="372" type="line"/>
			<point x="160" y="390"/>
			<point x="216" y="401"/>
			<point x="285" y="401" type="curve" smooth="yes"/>
			<point x="410" y="401"/>
			<point x="477" y="339"/>
			<point x="477" y="191" type="curve" smooth="yes"/>
			<point x="477" y="0" type="line"/>
			<point x="499" y="0" type="line"/>
			<point x="499" y="191" type="line" smooth="yes"/>
			<point x="499" y="347"/>
			<point x="431" y="421"/>
			<point x="287" y="421" type="curve" smooth="yes"/>
			<point x="219" y="421"/>
			<point x="163" y="410"/>
			<point x="124" y="393" type="curve"/>
			<point x="119" y="393" type="line"/>
			<point x="119" y="698" type="line"/>
			<point x="97" y="698" type="line"/>
		</contour>
	</outline>
</glyph>
<glyph name="uni04BC" format="2">
	<advance width="681"/>
	<outline>
		<contour>
			<point x="631" y="349" type="line"/>
			<point x="631" y="589"/>
			<point x="543" y="710"/>
			<point x="387" y="710" type="curve" smooth="yes"/>
			<point x="236" y="710"/>
			<point x="148" y="595"/>
			<point x="143" y="367" type="curve"/>
			<point x="62" y="367" type="line"/>
			<point x="62" y="481" type="line"/>
			<point x="42" y="481" type="line"/>
			<point x="42" y="378" type="line"/>
			<point x="42" y="358"/>
			<point x="50" y="347"/>
			<point x="69" y="347" type="curve"/>
			<point x="143" y="347" type="line"/>
			<point x="143" y="110"/>
			<point x="238" y="-12"/>
			<point x="392" y="-12" type="curve" smooth="yes"/>
			<point x="504" y="-12"/>
			<point x="583" y="50"/>
			<point x="617" y="174" type="curve"/>
			<point x="598" y="184" type="line"/>
			<point x="567" y="68"/>
			<point x="493" y="8"/>
			<point x="393" y="8" type="curve" smooth="yes"/>
			<point x="256" y="8"/>
			<point x="167" y="117"/>
			<point x="167" y="328" type="curve" smooth="yes"/>
			<point x="167" y="354" type="line"/>
			<point x="155" y="347" type="line"/>
			<point x="631" y="347" type="line"/>
		</contour>
		<contour>
			<point x="387" y="690" type="curve"/>
			<point x="524" y="690"/>
			<point x="607" y="581"/>
			<point x="607" y="370" type="curve" smooth="yes"/>
			<point x="607" y="354" type="line"/>
			<point x="617" y="367" type="line"/>
			<point x="158" y="367" type="line"/>
			<point x="167" y="362" type="line"/>
			<point x="167" y="370" type="line" smooth="yes"/>
			<point x="167" y="581"/>
			<point x="251" y="690"/>
		</contour>
	</outline>
</glyph>
<glyph name="uni04BF" format="2">
	<advance width="535"/>
	<outline>
		<contour>
			<point x="311" y="-12" type="line"/>
			<point x="392" y="-8"/>
			<point x="448" y="44"/>
			<point x="474" y="124" type="curve"/>
			<point x="457" y="131" type="line"/>
			<point x="429" y="49"/>
			<point x="376" y="7"/>
			<point x="301" y="7" type="curve" smooth="yes"/>
			<point x="194" y="7"/>
			<point x="132" y="93"/>
			<point x="132" y="229" type="curve" smooth="yes"/>
			<point x="132" y="256" type="line"/>
			<point x="482" y="256" type="line"/>
			<point x="482" y="266" type="line" smooth="yes"/>
			<point x="482" y="421"/>
			<point x="407" y="518"/>
			<point x="297" y="518" type="curve" smooth="yes"/>
			<point x="185" y="518"/>
			<point x="115" y="434"/>
			<point x="109" y="275" type="curve"/>
			<point x="43" y="275" type="line"/>
			<point x="43" y="376" type="line"/>
			<point x="23" y="376" type="line"/>
			<point x="23" y="286" type="line" smooth="yes"/>
			<point x="23" y="266"/>
			<point x="32" y="256"/>
			<point x="50" y="256" type="curve" smooth="yes"/>
			<point x="109" y="256" type="line"/>
			<point x="109" y="82"/>
			<point x="177" y="-8"/>
			<point x="290" y="-12" type="curve"/>
			<point x="290" y="-140" type="line"/>
			<point x="311" y="-140" type="line"/>
		</contour>
		<contour>
			<point x="297" y="499" type="curve" smooth="yes"/>
			<point x="394" y="499"/>
			<point x="459" y="412"/>
			<point x="459" y="279" type="curve" smooth="yes"/>
			<point x="459" y="275" type="line"/>
			<point x="132" y="275" type="line"/>
			<point x="132" y="277" type="line" smooth="yes"/>
			<point x="132" y="413"/>
			<point x="192" y="499"/>
		</contour>
	</outline>
</glyph>
<glyph name="uni04E0" format="2">
	<advance width="517"/>
	<outline>
		<contour>
			<point x="253" y="-12" type="curve" smooth="yes"/>
			<point x="356" y="-12"/>
			<point x="453" y="60"/>
			<point x="453" y="192" type="curve" smooth="yes"/>
			<point x="453" y="296"/>
			<point x="392" y="394"/>
			<point x="255" y="394" type="curve" smooth="yes"/>
			<point x="176" y="394" type="line"/>
			<point x="191" y="384" type="line"/>
			<point x="191" y="399" type="line"/>
			<point x="440" y="677" type="line"/>
			<point x="440" y="698" type="line"/>
			<point x="74" y="698" type="line"/>
			<point x="74" y="678" type="line"/>
			<point x="345" y="678" type="line"/>
			<point x="414" y="681" type="line"/>
			<point x="414" y="677" type="line"/>
			<point x="161" y="396" type="line"/>
			<point x="161" y="376" type="line"/>
			<point x="253" y="376" type="line" smooth="yes"/>
			<point x="366" y="376"/>
			<point x="430" y="299"/>
			<point x="430" y="204" type="curve" smooth="yes"/>
			<point x="430" y="175" type="line" smooth="yes"/>
			<point x="430" y="82"/>
			<point x="348" y="8"/>
			<point x="255" y="8" type="curve" smooth="yes"/>
			<point x="173" y="8"/>
			<point x="108" y="42"/>
			<point x="71" y="116" type="curve"/>
			<point x="53" y="104" type="line"/>
			<point x="90" y="31"/>
			<point x="158" y="-12"/>
		</contour>
	</outline>
</glyph>
<glyph name="uni04E1" format="2">
	<advance width="446"/>
	<outline>
		<contour>
			<point x="216" y="-200" type="curve" smooth="yes"/>
			<point x="313" y="-200"/>
			<point x="390" y="-123"/>
			<point x="390" y="2" type="curve" smooth="yes"/>
			<point x="390" y="105"/>
			<point x="336" y="196"/>
			<point x="218" y="196" type="curve" smooth="yes"/>
			<point x="152" y="196" type="line"/>
			<point x="167" y="187" type="line"/>
			<point x="167" y="201" type="line"/>
			<point x="378" y="487" type="line"/>
			<point x="378" y="506" type="line"/>
			<point x="61" y="506" type="line"/>
			<point x="61" y="487" type="line"/>
			<point x="293" y="487" type="line"/>
			<point x="353" y="490" type="line"/>
			<point x="353" y="486" type="line"/>
			<point x="140" y="198" type="line"/>
			<point x="140" y="179" type="line"/>
			<point x="214" y="179" type="line" smooth="yes"/>
			<point x="311" y="179"/>
			<point x="367" y="110"/>
			<point x="367" y="19" type="curve" smooth="yes"/>
			<point x="367" y="-19" type="line" smooth="yes"/>
			<point x="367" y="-106"/>
			<point x="302" y="-181"/>
			<point x="218" y="-181" type="curve" smooth="yes"/>
			<point x="146" y="-181"/>
			<point x="92" y="-151"/>
			<point x="58" y="-83" type="curve"/>
			<point x="42" y="-94" type="line"/>
			<point x="75" y="-161"/>
			<point x="132" y="-200"/>
		</contour>
	</outline>
</glyph>
<glyph name="uni04E9" format="2">
	<advance width="488"/>
	<anchor x="244" y="0" name="bottom"/>
	<anchor x="244" y="540" name="top"/>
	<outline>
		<contour>
			<point x="244" y="-12" type="curve" smooth="yes"/>
			<point x="363" y="-12"/>
			<point x="434" y="79"/>
			<point x="434" y="253" type="curve" smooth="yes"/>
			<point x="434" y="427"/>
			<point x="363" y="518"/>
			<point x="244" y="518" type="curve" smooth="yes"/>
			<point x="125" y="518"/>
			<point x="54" y="428"/>
			<point x="54" y="253" type="curve" smooth="yes"/>
			<point x="54" y="78"/>
			<point x="125" y="-12"/>
		</contour>
		<contour>
			<point x="244" y="7" type="curve" smooth="yes"/>
			<point x="137" y="7"/>
			<point x="77" y="93"/>
			<point x="77" y="229" type="curve" smooth="yes"/>
			<point x="77" y="249" type="line"/>
			<point x="411" y="249" type="line"/>
			<point x="411" y="229" type="line" smooth="yes"/>
			<point x="411" y="93"/>
			<point x="350" y="7"/>
		</contour>
		<contour>
			<point x="77" y="277" type="line" smooth="yes"/>
			<point x="77" y="413"/>
			<point x="137" y="499"/>
			<point x="244" y="499" type="curve" smooth="yes"/>
			<point x="350" y="499"/>
			<point x="411" y="413"/>
			<point x="411" y="277" type="curve" smooth="yes"/>
			<point x="411" y="268" type="line"/>
			<point x="77" y="268" type="line"/>
		</contour>
	</outline>
</glyph>
<glyph name="uni04F6" format="2">
	<advance width="456"/>
	<outline>
		<contour>
			<point x="97" y="0" type="line"/>
			<point x="177" y="0" type="line"/>
			<point x="177" y="-150" type="line"/>
			<point x="199" y="-150" type="line"/>
			<point x="199" y="20" type="line"/>
			<point x="119" y="20" type="line"/>
			<point x="119" y="678" type="line"/>
			<point x="417" y="678" type="line"/>
			<point x="417" y="698" type="line"/>
			<point x="97" y="698" type="line"/>
		</contour>
	</outline>
</glyph>
